<svg height="512pt" viewBox="0 -45 512.00156 512" width="512pt" xmlns="http://www.w3.org/2000/svg"><path d="m505.460938 27.53125c-4.21875-5.199219-9.871094-8.703125-16.175782-10.023438-2.648437-6.066406-7.167968-10.933593-13.0625-14.082031-11.195312-5.988281-25.332031-3.96875-34.417968 4.859375-6.871094 6.6875-10.019532 15.929688-8.660157 25.382813.433594 3 .617188 8.695312-3.035156 13.136719l-28.664063 34.773437c-.425781-.078125-.816406-.183594-1.242187-.261719l-1.207031-.207031-1.214844.136719c-3.035156.339844-5.917969 1.136718-8.710938 2.152344-6.195312 2.25-11.734374 5.964843-15.976562 11.101562-.097656.121094-.21875.234375-.3125.355469-1.597656 1.917969-3.296875 3.742187-5.007812 5.554687-1.222657 1.273438-2.464844 2.542969-3.808594 3.816406-30.972656-8.515624-77.832032-7.382812-132.929688 39.859376-.988281.847656-2.101562 1.855468-3.332031 2.976562-2.210937 2.019531-4.851563 4.355469-7.757813 6.636719.007813-3.546875-.15625-7.074219-.625-10.515625-3.453124-25.566406-19.917968-47.773438-47.609374-64.21875-6.613282-3.902344-14.804688-3.878906-21.355469.105468-6.605469 4.015626-10.421875 11.324219-9.972657 19.066407.425782 7.394531-1.269531 16.332031-4.722656 26.304687-4.199218-1.457031-8.484375-2.257812-12.964844-2.257812-54.277343-.027344-87.984374 35.578125-87.984374 92.90625 0 5.328125.535156 10.667968 1.578124 15.855468 2.734376 13.574219 2.96875 25.425782.722657 36.230469-1.527344 7.332031-2.300781 14.820313-2.300781 22.25 0 13.851563 3.660156 26.355469 10.527343 37.453125-5.417969 5.097656-9.824219 11.25-13.113281 18.148438h-15.378906c-6.300782 0-12 3.472656-14.882813 9.078125-2.878906 5.605469-2.394531 12.261719 1.269531 17.390625l19.609376 27.457031c10.8125 15.140625 28.378906 24.175781 46.972656 24.175781h355.210937c18.597657 0 36.164063-9.03125 46.976563-24.175781l19.621094-27.457031c3.660156-5.128906 4.148437-11.785156 1.265624-17.390625-2.878906-5.605469-8.582031-9.078125-14.882812-9.078125h-24.054688c-1.085937-2.285156-2.308593-4.453125-3.65625-6.550782 23.804688-18.296874 38.757813-40.796874 44.277344-67.089843 7.773438-37.003907-27.195312-81.601563-62.457031-121.285157 1.085937-1.40625 2.101563-2.828124 3.238281-4.207031.023438-.027343.042969-.0625.066406-.089843l1.035157-1.566407c.335937-.660156 6.324219-12.714843 5.136719-26.53125l30.207031-36.636719c3.652343-4.445312 9.285156-5.347656 12.304687-5.496093 9.539063-.457031 18.015625-5.320313 23.269532-13.335938 6.925781-10.609375 6.179687-24.875-1.8125-34.707031zm-92.621094 119.289062-3.105469 4.414063.128906.148437c-14.457031 22.363282-23.167969 46.984376-25.226562 72.246094-1.101563 13.46875-6.242188 26.121094-14.863281 36.59375-11.605469 14.066406-28.023438 22.554688-46.222657 23.882813-18.195312 1.265625-35.683593-4.710938-49.246093-16.992188-25.636719-23.210937-28.679688-63.914062-6.777344-90.753906 9.65625-11.835937 22.648437-19.742187 37.574218-22.867187 24.054688-5.023438 45.4375-15.230469 63.097657-29.789063l.035156.007813.339844-.304688c3.878906-3.226562 7.574219-6.65625 11.082031-10.308594 1.941406-1.988281 3.695312-4 5.425781-6.023437.449219-.53125.953125-1.003907 1.394531-1.542969 3.039063-3.679688 7.289063-6.089844 12.089844-6.898438 1.769532.328126 3.234375.804688 4.824219 1.230469 2.34375.625 4.46875 1.347657 6.40625 2.144531.65625.277344 1.316406.546876 1.925781.851563 1.214844.578125 2.335938 1.203125 3.359375 1.863281.996094.652344 1.933594 1.339844 2.777344 2.074219.5625.488281 1.101563.980469 1.585937 1.511719.921876 1.007812 1.710938 2.074218 2.359376 3.203125.390624.675781.753906 1.371093 1.050781 2.097656.070312.164063.132812.339844.191406.503906.332031.878907.605469 1.78125.800781 2.726563l.015625.078125c1.589844 7.949219-1.589843 16.261719-2.648437 18.691406-2.976563 3.652344-5.738282 7.410156-8.375 11.210937zm-253.46875-52.945312c.644531-.390625 1.960937-.902344 3.480468-.007812 16.019532 9.519531 35.832032 26.1875 39.257813 51.613281.902344 6.683593.625 13.6875-.71875 20.96875l-.3125 1.527343c-3.117187 15.097657-10.96875 31.457032-23.421875 48.910157-.105469.144531-.214844.304687-.320312.449219-4.746094 6.613281-10.179688 13.382812-16.238282 20.300781-.605468.691406-1.230468 1.394531-1.855468 2.097656-2.960938 3.324219-6.023438 6.664063-9.285157 10.050781-5.5625 5.769532-11.011719 10.292969-16.210937 13.492188-8.4375 5.191406-16.203125 6.867187-22.761719 4.886718-.175781-.050781-.363281-.050781-.539063-.113281-7.929687-2.707031-13.832031-11.480469-15.03125-22.371093-.042968-.363282.027344-.753907-.007812-1.121094-.476562-6.359375.851562-12.9375 3.375-19.578125 4.757812-12.496094 13.511719-25.183594 21.632812-36.863281.773438-1.121094 1.460938-2.160157 2.214844-3.253907 2.109375-3.046875 4.234375-6.089843 6.136719-9.007812.386719-.597657.726563-1.179688 1.109375-1.777344 1.457031-2.273437 2.933594-4.582031 4.410156-7.039063 1.222656-2.03125 2.351563-4.035156 3.476563-6.039062.601562-1.050781 1.199219-2.046875 1.789062-3.117188 3.421875-6.238281 6.40625-12.320312 8.90625-18.1875l2.878907-6.769531-.25-.15625c4.441406-12.035156 7.277343-24.304687 6.628906-35.640625-.121094-1.890625.988281-2.847656 1.65625-3.253906zm-97.175782 241.535156c1.683594-1.171875 3.417969-2.230468 5.214844-3.140625.277344-.140625.574219-.234375.851563-.375 1.5-.71875 3.039062-1.335937 4.601562-1.875.667969-.222656 1.34375-.414062 2.019531-.613281 1.300782-.375 2.628907-.6875 3.96875-.9375.640626-.121094 1.28125-.261719 1.941407-.347656 1.96875-.269532 3.964843-.453125 5.988281-.453125 2.066406 0 4.097656.191406 6.109375.480469.597656.085937 1.1875.207031 1.78125.320312 1.445313.269531 2.878906.613281 4.285156 1.023438.582031.171874 1.171875.332031 1.746094.53125 1.742187.597656 3.445313 1.285156 5.09375 2.082031.136719.070312.277344.113281.414063.183593 1.769531.894532 3.453124 1.925782 5.078124 3.046876.46875.320312.921876.683593 1.378907 1.023437 1.164062.878906 2.292969 1.804687 3.367187 2.785156.453125.410157.902344.816407 1.328125 1.25 1.230469 1.230469 2.40625 2.53125 3.480469 3.914063.15625.199218.328125.371094.484375.574218.035156.042969.0625.09375.085937.136719h-69.292968c2.828125-3.742187 6.246094-6.960937 10.074218-9.609375zm94.667969 8.902344c1.085938-1.378906 2.246094-2.679688 3.480469-3.914062.433594-.425782.882812-.832032 1.328125-1.246094 1.074219-.992188 2.195313-1.917969 3.367187-2.785156.457032-.347657.902344-.707032 1.378907-1.027344 1.621093-1.117188 3.304687-2.160156 5.078125-3.046875.136718-.066407.277344-.109375.414062-.179688 1.640625-.808593 3.351563-1.496093 5.09375-2.085937.574219-.199219 1.164063-.355469 1.746094-.527344 1.40625-.417969 2.828125-.753906 4.285156-1.027344.589844-.109375 1.179688-.234375 1.78125-.320312 2.003906-.285156 4.042969-.476563 6.109375-.476563 2.066407 0 4.09375.191407 6.109375.476563.597656.085937 1.1875.210937 1.777344.320312 1.449219.269532 2.882812.617188 4.289062 1.027344.582032.171875 1.171876.328125 1.742188.527344 1.746094.601562 3.445312 1.285156 5.09375 2.085937.140625.066407.28125.109375.417969.179688 1.769531.894531 3.453125 1.929687 5.078125 3.046875.46875.320312.917968.6875 1.378906 1.027344 1.164062.875 2.289062 1.804687 3.367188 2.785156.453124.40625.902343.8125 1.328124 1.246094 1.230469 1.234374 2.402344 2.535156 3.480469 3.914062.15625.203125.328125.375.484375.574219.035156.042969.0625.09375.085938.136719h-69.25c.035156-.042969.058594-.09375.085937-.136719.140625-.199219.3125-.375.46875-.574219zm104.136719 0c1.085938-1.378906 2.25-2.679688 3.480469-3.914062.433593-.425782.886719-.832032 1.328125-1.246094 1.074218-.992188 2.195312-1.917969 3.367187-2.785156.457031-.347657.902344-.707032 1.378907-1.027344 1.621093-1.117188 3.304687-2.160156 5.078124-3.046875.136719-.066407.277344-.109375.414063-.179688 1.640625-.808593 3.351563-1.496093 5.09375-2.085937.574219-.199219 1.164063-.355469 1.746094-.527344 1.40625-.417969 2.828125-.753906 4.289062-1.027344.589844-.109375 1.179688-.234375 1.777344-.320312 2.003906-.285156 4.042969-.476563 6.109375-.476563s4.09375.191407 6.109375.476563c.597656.085937 1.1875.210937 1.777344.320312 1.449219.269532 2.882812.617188 4.289062 1.027344.582031.171875 1.171875.328125 1.746094.527344 1.742187.601562 3.445313 1.285156 5.09375 2.085937.136719.066407.277344.109375.414063.179688 1.769531.894531 3.453124 1.929687 5.078124 3.046875.46875.320312.921876.6875 1.378907 1.027344 1.164062.875 2.292969 1.804687 3.367187 2.785156.453125.40625.902344.8125 1.328125 1.246094 1.230469 1.234374 2.402344 2.535156 3.480469 3.914062.15625.203125.328125.375.484375.574219.035156.042969.0625.09375.085937.136719h-69.25c.035157-.042969.0625-.09375.085938-.136719.140625-.199219.3125-.375.46875-.574219zm104.136719 0c1.085937-1.378906 2.246093-2.679688 3.480469-3.914062.433593-.425782.882812-.832032 1.328124-1.246094 1.074219-.992188 2.195313-1.917969 3.367188-2.785156.457031-.347657.902344-.707032 1.378906-1.027344 1.621094-1.117188 3.304688-2.160156 5.078125-3.046875.136719-.066407.277344-.109375.414063-.179688 1.640625-.808593 3.351562-1.496093 5.09375-2.085937.574218-.199219 1.164062-.355469 1.746094-.527344 1.40625-.417969 2.828124-.753906 4.285156-1.027344.589844-.109375 1.179687-.234375 1.78125-.320312 2.003906-.285156 4.042968-.476563 6.109375-.476563 1.613281 0 3.210937.113281 4.796875.285157.859375.09375 1.695312.269531 2.542968.417968.679688.109375 1.355469.214844 2.015626.363282 1.152343.257812 2.289062.589843 3.417968.945312.285156.085938.582032.171875.871094.269531 1.359375.457031 2.703125.988281 4.015625 1.578125 5.519531 2.515625 10.535156 6.207032 14.675781 10.890625l2.296875 2.605469h-69.265625c.035156-.042969.058594-.097656.085938-.140625.152344-.203125.328125-.378906.484375-.578125zm111.554687 18.066406-18.914062 26.484375c-7.570313 10.589844-19.847656 16.90625-32.859375 16.90625h-355.199219c-13.007812 0-25.285156-6.324219-32.855469-16.90625l-18.917969-26.484375h442.535157zm.78125-94.554687c-4.703125 22.363281-17.660156 41.699219-38.546875 57.527343-.441406-.382812-.921875-.71875-1.371093-1.09375-1.882813-1.542968-3.835938-2.984374-5.894532-4.292968-1.039062-.671875-2.097656-1.304688-3.175781-1.910156-1.09375-.609376-2.167969-1.222657-3.296875-1.761719-1.980469-.957031-4.027344-1.761719-6.089844-2.5-.84375-.296875-1.695312-.582031-2.554687-.84375-2.382813-.730469-4.816407-1.320313-7.277344-1.742188-.539063-.085937-1.085937-.148437-1.632813-.226562-2.785156-.398438-5.605468-.667969-8.453124-.667969-2.984376 0-5.910157.269531-8.800782.695312-.9375.136719-1.847656.371094-2.777344.554688-1.933593.382812-3.84375.808594-5.71875 1.371094-1.050781.3125-2.0625.6875-3.089843 1.050781-1.707031.617187-3.382813 1.292969-5.023438 2.058594-1 .457031-1.988281.9375-2.96875 1.449219-1.640625.875-3.210937 1.839843-4.765625 2.863281-.847656.554687-1.707031 1.074219-2.53125 1.667969-1.839844 1.34375-3.585937 2.808593-5.269531 4.355468-.425781.390625-.890625.71875-1.308594 1.128906-2.03125 1.976563-3.914062 4.101563-5.667969 6.359376-.546874.703124-.996093 1.457031-1.507812 2.1875-.894531 1.257812-1.832031 2.480468-2.632812 3.808593-.796876-1.328125-1.734376-2.542969-2.628907-3.800781-.511719-.730469-.972656-1.492188-1.519531-2.195312-1.753906-2.257813-3.636719-4.382813-5.667969-6.351563-.414062-.398437-.882812-.738281-1.308593-1.128906-1.683594-1.542969-3.421876-3.011719-5.269532-4.355469-.816406-.597656-1.683594-1.109375-2.53125-1.667969-1.554687-1.015625-3.125-1.988281-4.765625-2.863281-.972656-.519531-1.960937-.988281-2.96875-1.457031-1.640625-.765625-3.3125-1.441407-5.023437-2.058594-1.023438-.363281-2.039063-.734375-3.089844-1.050781-1.875-.5625-3.785156-.988282-5.71875-1.371094-.929688-.183594-1.839844-.414062-2.777344-.554688-2.890625-.425781-5.824218-.695312-8.800781-.695312s-5.910156.269531-8.800781.695312c-.9375.136719-1.847656.371094-2.777344.554688-1.933594.382812-3.84375.808594-5.71875 1.371094-1.050781.3125-2.0625.6875-3.089844 1.050781-1.707031.617187-3.382812 1.292969-5.023437 2.058594-1 .457031-1.988281.9375-2.96875 1.449219-1.640625.875-3.210938 1.839843-4.765625 2.863281-.847656.554687-1.707032 1.074219-2.53125 1.667969-1.839844 1.34375-3.585938 2.808593-5.269532 4.355468-.425781.390625-.890624.71875-1.308593 1.128906-2.03125 1.976563-3.914063 4.101563-5.667969 6.359376-.546875.703124-1 1.457031-1.507812 2.1875-.90625 1.257812-1.84375 2.484374-2.640626 3.808593-.796874-1.324219-1.734374-2.539062-2.628906-3.796875-.511718-.730468-.972656-1.496094-1.519531-2.195312-1.753906-2.257813-3.636719-4.386719-5.667969-6.355469-.414062-.398437-.882812-.734375-1.308594-1.125-1.683593-1.546875-3.421874-3.011719-5.269531-4.359375-.816406-.597656-1.683593-1.109375-2.53125-1.664062-1.554687-1.015626-3.125-1.988282-4.765625-2.863282-.972656-.523437-1.960937-.992187-2.96875-1.460937-1.640625-.761719-3.3125-1.441407-5.023437-2.054688-1.023438-.367187-2.039063-.738281-3.089844-1.050781-1.875-.566406-3.785156-.992188-5.71875-1.375-.929687-.179688-1.839844-.414062-2.777344-.554688-2.890625-.425781-5.824219-.695312-8.800781-.695312s-5.910156.269531-8.800781.695312c-.9375.140626-1.847657.375-2.777344.554688-1.933594.382812-3.84375.808594-5.71875 1.375-1.050781.3125-2.0625.683594-3.089844 1.050781-1.707031.613281-3.382812 1.292969-5.023437 2.054688-1 .460937-1.988282.9375-2.96875 1.449219-1.640625.878906-3.210938 1.839843-4.765625 2.863281-.847657.558593-1.707031 1.078125-2.53125 1.667969-1.839844 1.34375-3.585938 2.8125-5.269531 4.355468-.425782.390625-.890626.722656-1.308594 1.128906-2.03125 1.976563-3.914063 4.105469-5.667969 6.363282-.546875.703125-.996094 1.457031-1.507813 2.1875-.902343 1.257812-1.84375 2.480468-2.640624 3.808594-.796876-1.328126-1.734376-2.542969-2.628907-3.800782-.511719-.730468-.972656-1.492187-1.519531-2.195312-1.753906-2.257813-3.636719-4.382813-5.667969-6.351563-.414062-.402343-.882812-.738281-1.308593-1.128906-1.683594-1.542969-3.421876-3.011719-5.269532-4.355469-.816406-.601562-1.683594-1.113281-2.53125-1.667968-1.554687-1.015626-3.125-1.988282-4.765625-2.863282-.972656-.519531-1.960937-.988281-2.96875-1.457031-1.640625-.765625-3.3125-1.441406-5.023437-2.058594-1.023438-.363281-2.039063-.738281-3.089844-1.050781-1.875-.5625-3.785156-.988281-5.71875-1.371094-.929688-.183594-1.839844-.417968-2.777344-.554687-2.890625-.425781-5.824218-.695313-8.800781-.695313-2.90625 0-5.777344.269532-8.617187.675782-.761719.113281-1.519532.269531-2.273438.410156-2.152344.390625-4.277344.902344-6.367188 1.527344-.707031.207031-1.40625.40625-2.109374.640624-2.484376.84375-4.921876 1.816407-7.28125 2.984376-.183594.085937-.375.15625-.554688.242187-.105469.054687-.21875.085937-.324219.140625-4.824219-8.140625-7.183593-17.210938-7.183593-27.511719 0-6.246093.652343-12.539062 1.933593-18.707031 2.734375-13.15625 2.511719-27.285156-.703125-43.210938-.824218-4.070312-1.230468-8.242187-1.230468-12.417968 0-22.71875 6.882812-75.578125 70.621093-75.578125 2.160157 0 4.234375.304687 6.285157.902343-.339844.710938-.707032 1.421876-1.058594 2.144532-1.375 2.742187-2.839844 5.519531-4.410156 8.347656-.660157 1.179688-1.292969 2.351562-1.988282 3.546875-2.265625 3.90625-4.660156 7.871094-7.300781 11.90625-2.488281 3.816406-5.238281 7.777344-8.058594 11.828125-10.5625 15.195312-22.078125 31.875-26.445312 49.570312-.855469 3.460938-1.507813 6.949219-1.75 10.488282-.210938 3.089844-.164063 6.207031.179687 9.347656 1.972656 17.816406 12.203125 31.941406 26.695313 36.871094 1.421875.488281 3.082031.921875 4.921875 1.261718.136718.023438.277344.042969.414062.066407 1.796875.304687 3.769532.488281 5.921875.503906.09375 0 .164063.027344.257813.027344.085937 0 .183594-.015625.269531-.015625 1.308594-.011719 2.671875-.078125 4.105469-.238282.105468-.007812.214844-.035156.320312-.042968 1.300782-.15625 2.664063-.386719 4.070313-.691406.347656-.078126.695312-.15625 1.050781-.238282 1.472656-.355468 2.984375-.769531 4.554688-1.308594.085937-.027343.164062-.050781.253906-.078124 1.648437-.574219 3.355468-1.292969 5.101562-2.101563.40625-.179687.816406-.398437 1.222656-.597656 1.449219-.710938 2.925782-1.511719 4.4375-2.394531.390626-.234376.777344-.441407 1.171876-.6875 1.847656-1.136719 3.730468-2.394532 5.65625-3.816407.363281-.269531.730468-.574219 1.09375-.851562 1.605468-1.222657 3.246093-2.558594 4.90625-4 .546874-.476563 1.09375-.945313 1.648437-1.449219 2.035156-1.839844 4.101563-3.792969 6.210937-5.988281 3.316407-3.445313 6.441407-6.855469 9.476563-10.246094.808594-.902344 1.589844-1.796875 2.371094-2.699219 2.457031-2.804687 4.804687-5.589844 7.0625-8.359375.511719-.625 1.042969-1.257812 1.542969-1.882812 2.734374-3.410157 5.320312-6.792969 7.75-10.152344.3125-.433594.601562-.859375.902343-1.285156 2.125-2.976563 4.132813-5.933594 6.023438-8.867188.398437-.625.8125-1.25 1.203125-1.875 4.183594-6.648437 7.75-13.171875 10.691406-19.570312.261719-.5625.503906-1.117188.746094-1.683594 1.257812-2.828125 2.40625-5.640625 3.421875-8.414063.136719-.382812.304687-.78125.441406-1.164062 1.128906-3.183594 2.101563-6.34375 2.898437-9.46875.015626-.0625.035157-.113281.054688-.171875 9.804688-4.644531 17.222656-11.421875 22.359375-16.105469 1.078125-.980468 2.050781-1.875 2.925781-2.632812 34.964844-29.972656 70.46875-43.136719 103.765625-38.875-13.140625 8.503906-28.101562 14.707031-44.539062 18.152344-18.585938 3.878906-35.441407 14.136718-47.46875 28.878906-27.644531 33.871094-23.800781 85.277344 8.585937 114.585937 15.558594 14.09375 35.222656 21.660157 55.929688 21.660157 2.0625 0 4.148437-.070313 6.230468-.21875 22.96875-1.671876 43.695313-12.390626 58.34375-30.164063 10.886719-13.214844 17.378907-29.199219 18.777344-46.21875 1.699219-20.886719 8.519532-41.367187 19.914063-60.242187 24.226562 27.332031 61.949219 73.039062 55.648437 103.019531zm15.257813-215.09375c-2.171875 3.316406-5.660157 5.320312-9.574219 5.511719-10.179688.496093-19.011719 4.683593-24.871094 11.792968l-23.910156 29c-3.703125-4.867187-8.703125-8.851562-15.035156-11.902344l24.148437-29.289062c5.859375-7.109375 8.289063-16.574219 6.832031-26.660156-.554687-3.878906.746094-7.699219 3.582032-10.457032 3.671875-3.582031 9.617187-4.417968 14.136718-1.996093 2.457032 1.3125 4.253907 3.238281 5.347657 5.746093 2.222656 5.050782 6.578125 8.644532 11.984375 9.867188 2.636718.582031 4.867187 1.980469 6.613281 4.132812l.007813.015626c3.238281 3.957031 3.550781 9.953124.738281 14.238281zm0 0"/></svg>