<svg height="512pt" viewBox="0 -45 512.00054 512" width="512pt" xmlns="http://www.w3.org/2000/svg"><path d="m508.613281 132.40625c-21.277343-81.285156-75.664062-67.054688-165.789062-43.46875-13.566407 3.546875-32.191407 5.757812-51.917969 8.09375-16.445312 1.953125-33.863281 4.0625-50.773438 7.152344-6.046874-6.191406-12.324218-12.894532-18.886718-19.945313-24.535156-26.390625-52.351563-56.304687-81.589844-71.421875-45.058594-23.304687-81.695312-14.976562-115.277344 26.226563-41.882812 51.378906-28.664062 135.527343 30.941406 201.710937-.804687 3.652344-1.53125 7.40625-2.121093 11.355469-5.542969 37.597656 9.363281 75.699219 42.003906 107.292969 31.8125 30.792968 76.878906 51.808594 126.902344 59.195312 12.894531 1.902344 25.730469 2.847656 38.363281 2.847656 36.375 0 71.023438-7.796874 100.226562-22.867187 40.371094-20.820313 65.652344-52.992187 71.199219-90.589844 1.335938-9.019531 1.820313-17.171875 1.605469-24.660156 59.53125-39.222656 88.984375-97.910156 75.113281-150.921875zm-446.855469 87.359375c-47.175781-57.699219-57.183593-126.871094-22.898437-168.933594 17.71875-21.734375 34.859375-32.25 54.449219-32.25 11.539062 0 23.929687 3.652344 37.773437 10.8125 26.359375 13.632813 52.996094 42.277344 76.496094 67.558594 3.480469 3.742187 6.90625 7.429687 10.257813 10.988281-13.957032 3.464844-25.628907 7.574219-35.375 12.4375-25.636719 12.78125-41.414063 29.355469-48.027344 50.507813-.53125.046875-.996094.160156-1.519532.214843-8.359374.839844-16.03125 2.355469-23.042968 4.558594-.214844.066406-.429688.140625-.644532.203125-14.855468 4.800781-26.710937 12.746094-35.742187 24.042969-.167969.207031-.324219.429688-.484375.636719-1.941406 2.484375-3.753906 5.117187-5.433594 7.925781-.261718.4375-.550781.847656-.804687 1.289062-1.613281 2.820313-3.097657 5.789063-4.460938 8.925782-.15625.371094-.371093.699218-.542969 1.082031zm351.667969 85.484375c-4.648437 31.484375-26.410156 58.738281-61.28125 76.71875-35.902343 18.515625-81.125 24.9375-127.304687 18.140625-46.195313-6.8125-87.613282-26.039063-116.640625-54.132813-28.195313-27.289062-41.164063-59.667968-36.515625-91.152343.765625-5.207031 1.738281-10.042969 2.894531-14.574219.992187-3.871094 2.15625-7.46875 3.445313-10.867188.148437-.390624.289062-.785156.4375-1.164062 1.316406-3.308594 2.792968-6.386719 4.425781-9.242188.175781-.308593.355469-.601562.53125-.898437 1.71875-2.882813 3.585937-5.5625 5.660156-7.980469.066406-.074218.140625-.140625.203125-.214844 2.175781-2.515624 4.539062-4.792968 7.125-6.816406.015625-.011718.027344-.027344.046875-.039062 2.484375-1.941406 5.207031-3.632813 8.09375-5.164063.328125-.167969.644531-.355469.96875-.523437 2.8125-1.40625 5.816406-2.621094 9.019531-3.667969.488282-.160156.980469-.308594 1.476563-.457031 3.242187-.980469 6.660156-1.8125 10.300781-2.445313.464844-.085937.960938-.140625 1.425781-.214843 3.847657-.617188 7.863281-1.09375 12.175781-1.355469 1.96875-.121094 4.191407-.046875 6.320313-.046875 2.417969-.015625 4.882813.046875 7.375.179687 2.558594.148438 5.203125.34375 7.992187.632813 1.15625.113281 2.296876.207031 3.453126.34375.953124.113281 1.878906.1875 2.839843.320312 2.519531.335938 5.089844.785156 7.65625 1.222656 1.476563.253907 2.929688.457032 4.414063.738282 2.34375.4375 4.71875.949218 7.078125 1.453125 1.671875.355469 3.324219.675781 4.996093 1.046875 3.566407.8125 7.152344 1.679687 10.726563 2.585937.386719.09375.777344.179688 1.160156.28125 12.3125 3.144531 24.609375 6.757813 36.335938 10.175781 19.660156 5.742188 38.242187 11.15625 53.386719 13.398438 48.746093 7.1875 79.804687 12.808594 98.28125 22.882812.121093.066407.242187.128907.363281.195313 14.265625 7.890625 20.894531 18.503906 22.277343 34.714844l.382813 4.460937c.152344 6.117188-.304687 13.175782-1.527344 21.464844zm17.039063-42.386719c-.054688-.175781-.128906-.328125-.1875-.492187-.597656-1.945313-1.3125-3.78125-2.082032-5.585938-.34375-.820312-.699218-1.640625-1.082031-2.433594-.867187-1.8125-1.792969-3.578124-2.835937-5.25-.289063-.464843-.625-.90625-.933594-1.363281-3.746094-5.609375-8.5625-10.492187-14.472656-14.714843-.316406-.222657-.625-.457032-.945313-.679688-.996093-.691406-1.855469-1.457031-2.921875-2.113281-1.09375-.671875-2.34375-1.238281-3.492187-1.875-.019531-.007813-.046875-.027344-.066407-.035157-6.300781-3.484374-13.492187-6.453124-21.679687-9.039062-1.242187-.402344-2.445313-.820312-3.726563-1.207031-1.296874-.382813-2.675781-.746094-4.03125-1.109375-3.007812-.832032-6.105468-1.632813-9.296874-2.390625-.347657-.082031-.691407-.15625-1.039063-.242188-18.804687-4.378906-40.714844-7.65625-65.269531-11.277343-3.472656-.515626-7.199219-1.222657-11.140625-2.09375-.042969-.007813-.109375-.027344-.15625-.035157-11.785157-2.605469-25.414063-6.59375-39.652344-10.753906-27.113281-7.929687-56.992187-16.628906-84.496094-19.078125-1.230469-.128906-2.484375-.269531-3.679687-.371094 6.097656-13.351562 17.84375-24.089844 36.179687-33.238281 26.535157-13.230469 65.382813-17.84375 99.65625-21.902344 20.382813-2.410156 39.632813-4.695312 54.453125-8.574219 98.171875-25.691406 127.152344-30.378906 142.996094 30.136719 11.242188 42.996094-12.171875 91.230469-60.097656 125.71875zm0 0"/><path d="m130.328125 258.550781c-1.253906-5.003906-6.324219-8.046875-11.328125-6.796875s-8.039062 6.320313-6.796875 11.324219l9.339844 37.34375c1.0625 4.242187 4.863281 7.070313 9.046875 7.070313.757812 0 1.511718-.085938 2.277344-.28125 5.003906-1.25 8.039062-6.320313 6.796874-11.324219zm0 0"/><path d="m335.730469 137.175781c-1.253907-5.003906-6.3125-8.046875-11.328125-6.796875-5.003906 1.253906-8.039063 6.320313-6.796875 11.324219l9.339843 37.347656c1.0625 4.238281 4.863282 7.066407 9.046876 7.066407.757812 0 1.511718-.085938 2.277343-.277344 5.003907-1.253906 8.039063-6.320313 6.796875-11.328125zm0 0"/><path d="m284.136719 343.679688-31.988281 21.417968c-4.285157 2.863282-5.433594 8.671875-2.566407 12.949219 1.800781 2.6875 4.75 4.144531 7.765625 4.144531 1.785156 0 3.597656-.515625 5.183594-1.578125l31.988281-21.417969c4.285157-2.867187 5.433594-8.671874 2.566407-12.949218-2.878907-4.285156-8.683594-5.433594-12.949219-2.566406zm0 0"/><path d="m93.269531 92.761719c1.785157 0 3.59375-.511719 5.183594-1.578125l31.984375-21.417969c4.285156-2.867187 5.433594-8.671875 2.566406-12.949219-2.875-4.285156-8.671875-5.425781-12.949218-2.566406l-31.984376 21.417969c-4.285156 2.863281-5.433593 8.671875-2.566406 12.949219 1.800782 2.6875 4.75 4.144531 7.765625 4.144531zm0 0"/><path d="m282.558594 285.960938c4.097656 0 7.859375-2.726563 9-6.871094 1.363281-4.96875-1.558594-10.113282-6.535156-11.472656l-37.125-10.199219c-4.976563-1.378907-10.109376 1.558593-11.472657 6.535156-1.363281 4.96875 1.558594 10.113281 6.535157 11.476563l37.121093 10.195312c.824219.234375 1.664063.335938 2.476563.335938zm0 0"/><path d="m88.460938 159.984375c3.101562 0 6.136718-1.539063 7.910156-4.351563 2.753906-4.359374 1.449218-10.117187-2.914063-12.875l-32.554687-20.539062c-4.34375-2.734375-10.128906-1.445312-12.875 2.914062-2.753906 4.359376-1.449219 10.121094 2.910156 12.875l32.558594 20.539063c1.53125.972656 3.257812 1.4375 4.964844 1.4375zm0 0"/><path d="m451.605469 169.871094-28.507813 25.871094c-3.816406 3.464843-4.105468 9.375-.644531 13.195312 1.851563 2.03125 4.378906 3.0625 6.921875 3.0625 2.238281 0 4.480469-.792969 6.261719-2.417969l28.503906-25.871093c3.820313-3.464844 4.109375-9.375.644531-13.195313-3.460937-3.816406-9.363281-4.097656-13.179687-.644531zm0 0"/></svg>