<svg height="511pt" viewBox="1 -24 511.99848 511" width="511pt" xmlns="http://www.w3.org/2000/svg"><path d="m307.421875 300.476562c4.734375 0 8.574219-3.828124 8.574219-8.570312 0-33.074219-26.914063-59.996094-59.996094-59.996094-4.730469 0-8.570312 3.832032-8.570312 8.570313 0 4.742187 3.839843 8.574219 8.570312 8.574219 23.628906 0 42.851562 19.222656 42.851562 42.851562 0 4.730469 3.832032 8.570312 8.570313 8.570312zm0 0"/><path d="m333.136719 300.476562c4.730469 0 8.570312-3.828124 8.570312-8.570312 0-47.257812-38.449219-85.707031-85.707031-85.707031-18.90625 0-34.28125 15.375-34.28125 34.28125 0 4.742187 3.839844 8.574219 8.570312 8.574219 4.730469 0 8.570313-3.832032 8.570313-8.574219 0-9.453125 7.6875-17.140625 17.144531-17.140625 37.804688 0 68.566406 30.761718 68.566406 68.566406-.003906 4.730469 3.828126 8.570312 8.566407 8.570312zm0 0"/><path d="m256 257.625c-4.730469 0-8.570312 3.832031-8.570312 8.570312 0 4.738282 3.839843 8.570313 8.570312 8.570313 9.453125 0 17.140625 7.6875 17.140625 17.144531 0 4.738282 3.839844 8.570313 8.570313 8.570313 4.730468 0 8.570312-3.832031 8.570312-8.570313 0-18.910156-15.382812-34.285156-34.28125-34.285156zm0 0"/><path d="m358.847656 300.476562c4.730469 0 8.570313-3.828124 8.570313-8.570312 0-61.433594-49.984375-111.417969-111.417969-111.417969h-17.144531c-23.628907 0-42.851563 19.222657-42.851563 42.851563 0 4.742187 3.839844 8.570312 8.570313 8.570312s8.570312-3.828125 8.570312-8.570312c0-14.175782 11.535157-25.710938 25.714844-25.710938h17.140625c51.980469 0 94.277344 42.296875 94.277344 94.277344 0 4.730469 3.832031 8.570312 8.570312 8.570312zm0 0"/><path d="m136.007812 103.351562c4.730469 0 8.570313-3.832031 8.570313-8.570312h42.855469c13.945312 0 26.234375-6.796875 34.058594-17.144531h240.203124c14.175782 0 25.714844-11.535157 25.714844-25.710938 0-14.179687-11.535156-25.714843-25.714844-25.714843h-240.203124c-7.832032-10.34375-20.121094-17.140626-34.058594-17.140626h-42.855469c0-4.738281-3.839844-8.570312-8.570313-8.570312-4.730468 0-8.570312 3.832031-8.570312 8.570312v85.707032c0 4.734375 3.832031 8.574218 8.570312 8.574218zm325.691407-59.996093c4.722656 0 8.570312 3.839843 8.570312 8.570312s-3.847656 8.570313-8.570312 8.570313h-232.277344c.566406-2.765625.867187-5.636719.867187-8.570313 0-2.929687-.300781-5.800781-.867187-8.570312zm-274.265625-17.140625c8.605468 0 16.199218 4.285156 20.863281 10.796875l1.222656 2.101562c1.148438 1.964844 2 3.984375 2.597657 6.035157.042968.144531.105468.289062.136718.445312.574219 2.082031.882813 4.199219.882813 6.332031 0 2.136719-.304688 4.253907-.882813 6.332031-.042968.15625-.09375.292969-.136718.449219-.597657 2.046875-1.449219 4.070313-2.597657 6.03125l-1.222656 2.101563c-4.671875 6.511718-12.257813 10.800781-20.863281 10.800781h-42.855469v-17.125c6.222656.007813 16.695313.015625 34.285156.015625 4.730469 0 8.570313-3.832031 8.570313-8.570312 0-4.742188-3.839844-8.570313-8.570313-8.570313-17.621093 0-28.085937-.011719-34.285156-.019531v-17.15625zm0 0"/><path d="m110.296875 103.351562c4.730469 0 8.570313-3.832031 8.570313-8.570312v-85.710938c0-4.738281-3.839844-8.570312-8.570313-8.570312s-8.570313 3.832031-8.570313 8.570312v85.707032c0 4.734375 3.832032 8.574218 8.570313 8.574218zm0 0"/><path d="m110.296875 214.769531c4.730469 0 8.570313-3.828125 8.570313-8.570312v-85.707031c0-4.742188-3.839844-8.570313-8.570313-8.570313s-8.570313 3.828125-8.570313 8.570313v85.707031c0 4.730469 3.832032 8.570312 8.570313 8.570312zm0 0"/><path d="m84.585938 120.492188c-4.734376 0-8.574219 3.832031-8.574219 8.570312v85.707031c0 4.738281 3.839843 8.570313 8.574219 8.570313 4.730468 0 8.570312-3.832032 8.570312-8.570313v-85.707031c0-4.738281-3.839844-8.570312-8.570312-8.570312zm0 0"/><path d="m41.730469 69.066406c-4.730469 0-8.570313 3.832032-8.570313 8.570313 0 4.742187 3.839844 8.574219 8.570313 8.574219h34.285156v19.617187c0 4.738281 3.839844 8.570313 8.570313 8.570313 4.730468 0 8.570312-3.832032 8.570312-8.570313v-96.757813c0-4.738281-3.839844-8.570312-8.570312-8.570312-4.730469 0-8.570313 3.832031-8.570313 8.570312v8.574219h-34.285156c-4.730469 0-8.570313 3.828125-8.570313 8.570313 0 4.738281 3.839844 8.570312 8.570313 8.570312h34.285156v8.570313h-34.285156c-4.730469 0-8.570313 3.832031-8.570313 8.570312 0 4.742188 3.839844 8.570313 8.570313 8.570313h34.285156v8.574218c0-.003906-34.285156-.003906-34.285156-.003906zm0 0"/><path d="m435.546875 394.753906c-4.351563-47.976562-44.746094-85.707031-93.839844-85.707031h-59.996093c-4.730469 0-8.570313 3.832031-8.570313 8.574219 0 4.738281 3.839844 8.570312 8.570313 8.570312h59.996093c39.632813 0 72.355469 30.054688 76.632813 68.566406h-8.65625c-4.242188-33.769531-33.074219-59.996093-67.976563-59.996093h-51.425781c-4.730469 0-8.570312 3.832031-8.570312 8.570312 0 4.742188 3.839843 8.570313 8.570312 8.570313h51.425781c25.429688 0 46.546875 18.574218 50.652344 42.855468h-8.664063c-3.984374-19.535156-21.289062-34.285156-41.988281-34.285156h-42.851562c-4.730469 0-8.574219 3.832032-8.574219 8.574219 0 4.738281 3.84375 8.570313 8.574219 8.570313h42.851562c11.160157 0 20.589844 7.191406 24.136719 17.140624h-15.566406c0-4.738281-3.839844-8.570312-8.570313-8.570312h-42.851562c-4.730469 0-8.574219 3.832031-8.574219 8.570312h-8.714844c-3.007812-126.136718-72.148437-171.414062-136.984375-171.414062h-8.570312c-47.261719 0-85.707031 38.449219-85.707031 85.707031v42.851563c0 4.742187 3.839843 8.570312 8.570312 8.570312s8.570312-3.828125 8.570312-8.570312v-42.851563c0-37.804687 30.761719-68.566406 68.566407-68.566406h8.570312c85.269531 0 117.632813 78.128906 119.863281 154.273437h-8.5625c-2.402343-91.441406-43.625-145.703124-111.308593-145.703124-33.085938 0-59.996094 26.921874-59.996094 59.996093v8.570313c0 4.738281 3.839844 8.570312 8.570313 8.570312 4.730468 0 8.570312-3.832031 8.570312-8.570312v-8.570313c0-23.628906 19.226562-42.855469 42.855469-42.855469 79.636719 0 92.785156 83.996094 94.140625 128.5625h-8.554688c-2.460937-98.871093-47.566406-119.988281-85.585937-119.988281-14.175781 0-25.714844 11.535157-25.714844 25.710938 0 4.738281 3.839844 8.570312 8.570313 8.570312 4.734374 0 8.574218-3.832031 8.574218-8.570312 0-4.730469 3.847656-8.570313 8.570313-8.570313 44.316406 0 66.695312 33.734375 68.402343 102.847656h-8.410156c0-4.738281-3.839844-8.570312-8.570312-8.570312h-42.851563c-4.734375 0-8.574219 3.832031-8.574219 8.570312h-15.5625c3.546876-9.949218 12.972657-17.140624 24.132813-17.140624h42.855469c4.730468 0 8.570312-3.832032 8.570312-8.570313 0-4.742187-3.839844-8.574219-8.570312-8.574219h-42.855469c-20.6875 0-38.003906 14.753906-41.988281 34.285156h-8.664063c4.097657-24.28125 25.214844-42.855468 50.652344-42.855468h34.28125c4.734375 0 8.574219-3.828125 8.574219-8.570313 0-4.738281-3.839844-8.570312-8.574219-8.570312h-34.28125c-34.898437 0-63.730469 26.226562-67.972656 59.996093h-8.65625c4.285156-38.507812 37-68.566406 76.628906-68.566406h17.144531c4.730469 0 8.570313-3.832031 8.570313-8.570312 0-4.742188-3.839844-8.574219-8.570313-8.574219h-17.144531c-49.09375 0-89.496094 37.730469-93.839844 85.707031h-59.300781l26.097656 39.144532c12.28125 18.417968 32.835938 29.421874 54.980469 29.421874h349.839844c22.140625 0 42.691406-10.996093 54.980469-29.421874l26.101562-39.144532zm36.085937 29.640625c-9.09375 13.644531-24.316406 21.785157-40.710937 21.785157h-349.851563c-16.40625 0-31.617187-8.140626-40.710937-21.785157l-8.332031-12.496093h447.933594zm0 0"/></svg>