<?xml version="1.0" encoding="iso-8859-1"?>
<!-- Generator: Adobe Illustrator 19.0.0, SVG Export Plug-In . SVG Version: 6.00 Build 0)  -->
<svg version="1.1" id="Layer_1" xmlns="http://www.w3.org/2000/svg" xmlns:xlink="http://www.w3.org/1999/xlink" x="0px" y="0px"
	 viewBox="0 0 512 512" style="enable-background:new 0 0 512 512;" xml:space="preserve">
<g>
	<g>
		<path d="M439.051,44.978h-92.049V31.38c0-17.303-14.077-31.38-31.38-31.38H196.378c-17.303,0-31.38,14.077-31.38,31.38v13.598
			H72.949c-5.777,0-10.46,4.683-10.46,10.46v55.438c0,5.777,4.683,10.46,10.46,10.46h12.009l39.431,381.28
			c0.551,5.331,5.044,9.384,10.405,9.384h242.412c5.361,0,9.853-4.052,10.405-9.384l39.431-381.28h12.009
			c5.777,0,10.46-4.683,10.46-10.46V55.438C449.511,49.661,444.828,44.978,439.051,44.978z M185.918,31.38
			c0-5.768,4.692-10.46,10.46-10.46h119.245c5.768,0,10.46,4.692,10.46,10.46v13.598H185.918V31.38z M367.772,491.08H144.228
			l-2.431-23.503h165.089c5.777,0,10.46-4.683,10.46-10.46s-4.683-10.46-10.46-10.46H139.634l-33.645-325.32H406.01L367.772,491.08z
			 M428.591,100.417H83.409V65.898h345.182V100.417z"/>
	</g>
</g>
<g>
	<g>
		<path d="M291.694,225.161c-2.807,0-5.351,1.112-7.23,2.912l-19.406-33.613c-1.868-3.236-5.321-5.23-9.058-5.23
			c-3.737,0-7.19,1.994-9.058,5.23l-26.848,46.501c-2.888,5.003-1.173,11.4,3.829,14.288c5.005,2.888,11.4,1.175,14.288-3.828
			l17.788-30.811l10.351,17.93c-2.511,0.722-4.759,2.373-6.168,4.815c-2.889,5.003-1.175,11.4,3.828,14.288l22.454,12.964
			c1.618,0.934,3.424,1.402,5.23,1.402c1.806,0,3.612-0.468,5.23-1.402c3.236-1.868,5.23-5.321,5.23-9.058v-25.927
			C302.154,229.844,297.471,225.161,291.694,225.161z"/>
	</g>
</g>
<g>
	<g>
		<path d="M345.6,333.964l-26.848-46.501c-2.889-5.004-9.285-6.719-14.288-3.828c-5.001,2.888-6.716,9.285-3.827,14.288
			l17.788,30.811h-18.011c0.578-2.493,0.26-5.2-1.12-7.591c-2.888-5.004-9.285-6.717-14.288-3.828l-22.206,12.821
			c-3.236,1.868-5.23,5.321-5.23,9.058s1.994,7.19,5.23,9.058l22.206,12.821c1.647,0.951,3.446,1.404,5.221,1.403
			c3.615,0,7.131-1.875,9.068-5.231c1.381-2.391,1.699-5.098,1.12-7.591h36.128c3.737,0,7.19-1.994,9.058-5.23
			C347.469,341.187,347.469,337.2,345.6,333.964z"/>
	</g>
</g>
<g>
	<g>
		<path d="M229.152,328.734h-35.578l13.807-23.915c1.799,1.445,4.075,2.306,6.533,2.306c0.207,0,0.414-0.006,0.624-0.019
			c5.767-0.34,10.167-5.29,9.828-11.056l-1.526-25.952c-0.22-3.73-2.413-7.061-5.753-8.736c-3.34-1.675-7.32-1.441-10.442,0.614
			l-21.712,14.298c-4.824,3.177-6.16,9.664-2.983,14.489c1.619,2.46,4.101,4.006,6.782,4.517L166.4,333.962
			c-1.87,3.237-1.87,7.225-0.001,10.461c1.868,3.236,5.321,5.23,9.058,5.23h53.695c5.777,0,10.46-4.683,10.46-10.46
			S234.929,328.734,229.152,328.734z"/>
	</g>
</g>
<g>
	<g>
		<path d="M340.863,446.657h-0.137c-5.777,0-10.46,4.683-10.46,10.46s4.683,10.46,10.46,10.46h0.137
			c5.777,0,10.46-4.683,10.46-10.46S346.641,446.657,340.863,446.657z"/>
	</g>
</g>
<g>
</g>
<g>
</g>
<g>
</g>
<g>
</g>
<g>
</g>
<g>
</g>
<g>
</g>
<g>
</g>
<g>
</g>
<g>
</g>
<g>
</g>
<g>
</g>
<g>
</g>
<g>
</g>
<g>
</g>
</svg>
