<svg height="511pt" viewBox="1 -25 511.99846 511" width="511pt" xmlns="http://www.w3.org/2000/svg"><path d="m151.386719 406.90625c1.476562.976562 3.152343 1.457031 4.808593 1.457031 2.800782 0 5.550782-1.355469 7.226563-3.863281 2.65625-3.992188 1.578125-9.371094-2.40625-12.035156l-26.03125-17.355469c-3.992187-2.664063-9.375-1.589844-12.039063 2.402344-2.65625 3.992187-1.578124 9.371093 2.40625 12.035156zm0 0"/><path d="m195.714844 407.445312c1.246094.613282 2.566406.910157 3.867187.910157 3.1875 0 6.25-1.753907 7.777344-4.800781l8.675781-17.355469c2.144532-4.289063.410156-9.5-3.878906-11.644531-4.304688-2.136719-9.5-.410157-11.644531 3.878906l-8.679688 17.355468c-2.148437 4.304688-.40625 9.511719 3.882813 11.65625zm0 0"/><path d="m243.894531 429.597656c1.519531 3.046875 4.582031 4.800782 7.773438 4.800782 1.300781 0 2.632812-.296876 3.871093-.914063 4.289063-2.140625 6.023438-7.355469 3.878907-11.644531l-8.679688-17.355469c-2.140625-4.289063-7.339843-6.015625-11.644531-3.878906-4.289062 2.140625-6.023438 7.359375-3.878906 11.644531zm0 0"/><path d="m282.492188 398.765625c1.25.617187 2.570312.910156 3.871093.910156 3.183594 0 6.25-1.753906 7.773438-4.796875l8.679687-17.359375c2.144532-4.285156.410156-9.5-3.878906-11.644531-4.304688-2.125-9.5-.398438-11.644531 3.878906l-8.679688 17.355469c-2.152343 4.304687-.40625 9.511719 3.878907 11.65625zm0 0"/><path d="m339.351562 420.917969c1.519532 3.046875 4.582032 4.800781 7.773438 4.800781 1.300781 0 2.632812-.296875 3.871094-.910156 4.289062-2.144532 6.023437-7.359375 3.878906-11.648438l-8.679688-17.355468c-2.152343-4.277344-7.339843-6.003907-11.644531-3.878907-4.289062 2.144531-6.023437 7.359375-3.878906 11.648438zm0 0"/><path d="m377.949219 398.765625c1.25.617187 2.570312.910156 3.871093.910156 3.183594 0 6.25-1.753906 7.777344-4.796875l8.675782-17.359375c2.144531-4.285156.410156-9.5-3.878907-11.644531-4.292969-2.125-9.503906-.398438-11.644531 3.878906l-8.679688 17.355469c-2.152343 4.304687-.40625 9.511719 3.878907 11.65625zm0 0"/><path d="m369.292969 97.414062c-4.003907-2.664062-9.382813-1.589843-12.039063 2.40625-2.65625 3.988282-1.578125 9.371094 2.40625 12.035157l26.035156 17.355469c1.472657.980468 3.148438 1.457031 4.804688 1.457031 2.804688 0 5.554688-1.351563 7.230469-3.859375 2.652343-3.992188 1.578125-9.375-2.40625-12.039063zm0 0"/><path d="m324.964844 105.546875c-4.304688-2.136719-9.503906-.410156-11.648438 3.878906l-8.675781 17.355469c-2.144531 4.289062-.410156 9.5 3.878906 11.644531 1.246094.617188 2.566407.914063 3.867188.914063 3.183593 0 6.25-1.753906 7.777343-4.800782l8.675782-17.355468c2.15625-4.28125.410156-9.496094-3.875-11.636719zm0 0"/><path d="m294.140625 66.042969c-2.144531-4.277344-7.351563-6.003907-11.648437-3.878907-4.285157 2.144532-6.019532 7.359376-3.878907 11.648438l8.679688 17.355469c1.519531 3.046875 4.582031 4.800781 7.773437 4.800781 1.304688 0 2.632813-.296875 3.871094-.914062 4.289062-2.140626 6.023438-7.355469 3.878906-11.644532zm0 0"/><path d="m238.183594 114.222656c-4.304688-2.132812-9.5-.398437-11.644532 3.878906l-8.679687 17.359376c-2.140625 4.285156-.40625 9.5 3.878906 11.644531 1.25.617187 2.570313.910156 3.871094.910156 3.183594 0 6.246094-1.753906 7.773437-4.796875l8.679688-17.359375c2.152344-4.277344.40625-9.492187-3.878906-11.636719zm0 0"/><path d="m246.863281 36.121094c-4.296875-2.125-9.503906-.398438-11.648437 3.878906l-8.675782 17.355469c-2.144531 4.289062-.410156 9.503906 3.878907 11.648437 1.246093.613282 2.566406.910156 3.867187.910156 3.1875 0 6.25-1.753906 7.777344-4.800781l8.675781-17.355469c2.15625-4.277343.410157-9.492187-3.875-11.636718zm0 0"/><path d="m181.328125 83.398438c-2.144531-4.285157-7.351563-6.011719-11.648437-3.878907-4.285157 2.144531-6.019532 7.359375-3.878907 11.648438l8.679688 17.355469c1.519531 3.046874 4.582031 4.796874 7.773437 4.796874 1.300782 0 2.628906-.292968 3.871094-.910156 4.285156-2.140625 6.019531-7.359375 3.878906-11.644531zm0 0"/><path d="m142.726562 114.222656c-4.304687-2.132812-9.5-.398437-11.644531 3.878906l-8.679687 17.359376c-2.144532 4.285156-.40625 9.5 3.878906 11.644531 1.25.617187 2.570312.910156 3.871094.910156 3.183594 0 6.246094-1.753906 7.773437-4.796875l8.679688-17.359375c2.152343-4.277344.40625-9.492187-3.878907-11.636719zm0 0"/><path d="m297.59375 272.058594c-3.800781 3.800781-9.960938 3.800781-13.761719 0-10.5625-10.5625-27.746093-10.5625-38.304687 0-3.800782 3.800781-9.964844 3.800781-13.765625 0-10.5625-10.5625-27.742188-10.5625-38.304688 0-3.6875 3.679687-10.074219 3.679687-13.761719 0-10.5625-10.5625-27.742187-10.5625-38.304687 0-3.6875 3.679687-10.074219 3.679687-13.761719 0-10.5625-10.5625-27.746094-10.5625-38.304687 0-3.800781 3.800781-9.964844 3.800781-13.765625 0-10.238282-10.242188-28.0625-10.242188-38.304688 0-3.390625 3.394531-3.390625 8.878906 0 12.269531 3.394532 3.394531 8.878906 3.394531 12.269532 0 3.800781-3.800781 9.964843-3.800781 13.765624 0 10.5625 10.5625 27.742188 10.5625 38.304688 0 3.800781-3.800781 9.960938-3.800781 13.761719 0 10.5625 10.5625 27.742187 10.5625 38.304687 0 3.6875-3.679687 10.074219-3.679687 13.761719 0 10.5625 10.5625 27.746094 10.5625 38.304687 0 3.691407-3.679687 10.078126-3.679687 13.765626 0 10.5625 10.5625 27.742187 10.5625 38.304687 0 3.800781-3.800781 9.960937-3.800781 13.761719 0 5.121094 5.121094 11.925781 7.941406 19.152344 7.941406 7.226562 0 14.03125-2.820312 19.152343-7.941406 3.394531-3.394531 3.394531-8.878906 0-12.269531-3.390625-3.394532-8.878906-3.394532-12.269531 0zm0 0"/><path d="m462.476562 272.058594c-3.691406 3.679687-10.078124 3.679687-13.765624 0-10.5625-10.5625-27.742188-10.5625-38.304688 0-3.394531 3.394531-3.394531 8.878906 0 12.269531 3.394531 3.394531 8.878906 3.394531 12.269531 0 3.691407-3.679687 10.074219-3.679687 13.765625 0 5.277344 5.277344 12.21875 7.921875 19.152344 7.921875s13.875-2.644531 19.152344-7.921875c3.390625-3.394531 3.390625-8.878906 0-12.269531-3.394532-3.394532-8.878906-3.394532-12.269532 0zm0 0"/><path d="m468.609375 234.804688h-52.476563l13.363282-17.355469h30.433594c4.792968 0 8.679687-3.878907 8.679687-8.679688s-3.886719-8.679687-8.679687-8.679687h-407.863282c-4.789062 0-8.675781 3.878906-8.675781 8.679687s3.886719 8.679688 8.675781 8.679688h248.632813l13.363281 17.355469h-270.671875c-23.925781 0-43.390625 19.464843-43.390625 43.390624 0 23.925782 19.464844 43.386719 43.390625 43.386719h425.21875c23.925781 0 43.390625-19.460937 43.390625-43.386719 0-23.925781-19.464844-43.390624-43.390625-43.390624zm-61.023437-17.355469-15.957032 20.730469-26.53125 34.460937-26.527344-34.460937-15.960937-20.730469zm61.023437 86.777343h-425.21875c-14.355469 0-26.035156-11.679687-26.035156-26.035156 0-14.355468 11.679687-26.035156 26.035156-26.035156h284.027344l30.800781 40.007812c1.640625 2.125 4.183594 3.382813 6.871094 3.382813 2.691406 0 5.234375-1.257813 6.875-3.382813l30.796875-40.007812h65.847656c14.355469 0 26.035156 11.679688 26.035156 26.035156 0 14.355469-11.679687 26.035156-26.035156 26.035156zm0 0"/><path d="m459.699219 338.941406h-407.632813c-2.785156 0-5.40625 1.335938-7.035156 3.589844-1.632812 2.265625-2.085938 5.175781-1.207031 7.8125l21.902343 66.117188c8.835938 26.695312 33.671876 44.632812 61.796876 44.632812h256.867187c28.179687 0 53.023437-17.980469 61.832031-44.753906l21.71875-66.003906c.878906-2.648438.417969-5.546876-1.214844-7.792969-1.632812-2.25-4.242187-3.601563-7.027343-3.601563zm-29.957031 71.972656c-6.464844 19.636719-24.679688 32.820313-45.351563 32.820313h-256.867187c-20.628907 0-38.84375-13.15625-45.316407-32.726563l-18.121093-54.714843h383.628906zm0 0"/><path d="m48.832031 182.738281h414.328125c2.648438 0 5.136719-1.207031 6.785156-3.273437 1.648438-2.066406 2.265626-4.773438 1.667969-7.351563-23.1875-101.046875-111.851562-171.613281-215.613281-171.613281s-192.425781 70.566406-215.621094 171.613281c-.589844 2.578125.015625 5.277344 1.667969 7.351563 1.648437 2.074218 4.144531 3.273437 6.785156 3.273437zm207.167969-164.882812c91.945312 0 171.023438 60.121093 195.976562 147.523437h-391.953124c24.949218-87.402344 104.03125-147.523437 195.976562-147.523437zm0 0"/></svg>