<svg height="512pt" viewBox="-78 0 512 512.0004" width="512pt" xmlns="http://www.w3.org/2000/svg"><path d="m355.515625 423.765625-.160156-9.457031-3.753907-2.65625-49.761718-19.6875 23.847656-24.363282 3.152344-2.363281-.160156-9.457031-5.449219-3.855469-47.71875-7.511719v-11.722656c0-4.46875-2.035157-8.566406-5.589844-11.242187-1.023437-.773438-2.140625-1.351563-3.296875-1.8125v-153.367188l5.507812-4.6875c8.851563-7.527343 15.269532-13.667969 19.074219-18.269531 3.5-4.222656 3.332031-10.488281-.367187-14.578125l-.007813-.007813c-1.757812-1.949218-3.804687-3.601562-6.230469-4.1875l.570313-.722656c3.9375-5 4.769531-11.722656 2.1875-17.535156-2.550781-5.722656-8-9.527344-14.265625-9.933594-3.109375-.1875-6.042969-.1875-8.710938.042969.398438-9.449219-3.574218-15.019531-6.96875-18.015625-1.5625-1.394531-3.449218-2.300781-5.429687-2.667969-20.289063-33.015625-60.753906-52.550781-109.789063-52.550781-9.179687 0-18.113281-.261719-26.671874-.519531l-.507813-.007813c-2.496094-4.523437-6.84375-7.769531-12.078125-8.550781-2.445312-.371094-4.921875-.195313-7.246094.480469-.1875-.550782-.398437-1.101563-.601562-1.644532-2.230469-5.554687-7.085938-9.449218-12.984375-10.425781-6.011719-.984375-11.972657 1.191407-15.9375 5.8125-.796875.925781-1.574219 1.902344-2.265625 2.851563-.320313.4375-.695313.640625-1.136719.640625-.300781 0-.878906-.105469-1.40625-.816407-3.519531-4.71875-7.910156-8.417968-12.085937-10.140624-3.882813-1.582032-8.300782-.8906255-11.507813 1.820312-3.503906 2.945312-7.589844 8.398438-7.457031 17.875-2.746094-.300781-5.699219-.398438-8.710938-.25-6.238281.25-11.792968 3.910156-14.488281 9.566406-2.738281 5.765625-2.0625 12.511719 2.160156 17.578125-2.285156 1.277344-4.371093 2.878907-6.175781 4.78125-3.824219 4-4.140625 10.273438-.738281 14.585938 3.199219 4.0625 8.453125 9.410156 15.410156 15.792969v237.054687c-1.152344.464844-2.273437 1.03125-3.296875 1.8125-3.546875 2.675781-5.589844 6.773437-5.589844 11.246094v114.199219c0 35.898437 29.195313 65.101562 65.09375 65.101562h136.445313c32.386719 0 59.246093-23.792969 64.207031-54.808594l75.082031-29.492187zm-53.675781-57.222656-17.875 18.273437-8.441406-3.3125v-19.09375zm-266.289063-47.425781v-231.117188c1.261719.367188 2.542969.738281 3.839844 1.140625.925781.28125 1.832031.550781 2.765625.851563 1.8125.585937 3.679688 1.261718 5.546875 1.929687 1.046875.371094 2.070313.710937 3.125 1.109375 1.769531.667969 3.574219 1.441406 5.371094 2.1875 3.09375 1.289062 6.203125 2.683594 9.332031 4.214844.726562.355468 1.449219.664062 2.175781 1.039062 2.140625 1.09375 4.273438 2.285156 6.410157 3.492188.691406.390625 1.382812.753906 2.070312 1.164062 2.195312 1.296875 4.363281 2.683594 6.523438 4.125.574218.382813 1.152343.753906 1.730468 1.152344 2.234375 1.539062 4.4375 3.175781 6.605469 4.871094.4375.339844.871094.6875 1.296875 1.03125 2.257812 1.824218 4.472656 3.742187 6.632812 5.757812.257813.242188.503907.492188.761719.738282 1.671875 1.601562 3.273438 3.308593 4.863281 5.023437 1.199219 1.296875 2.363282 2.621094 3.484376 3.972656 1.101562 1.316407 2.175781 2.65625 3.226562 4.035157 1.304688 1.742187 2.558594 3.53125 3.75 5.34375.675781 1.023437 1.351562 2.035156 2 3.09375 1.511719 2.488281 2.921875 5.027343 4.222656 7.652343.246094.488281.503906.96875.746094 1.464844 1.429688 2.996094 2.71875 6.089844 3.886719 9.253906.46875 1.277344 1.019531 2.515625 1.4375 3.8125.222656.683594.445312 1.367188.65625 2.0625.933593 3.082031 1.726562 6.238281 2.417969 9.445313.167968.792968.367187 1.574218.515624 2.382812.125.632813.1875 1.316406.292969 1.957032.453125 2.578124.851563 5.191406 1.148438 7.847656.085937.824218.230469 1.632812.300781 2.46875.382812 4.140625.621094 8.410156.621094 12.863281 0 .328125.019531.683594.046875 1.054687 0 .054688.007812.109376.007812.160157.007813.097656.035157.222656.042969.332031.027344.21875.0625.460938.097656.710938.019532.132812.035156.257812.0625.398437.019532.113281.054688.257813.082032.371094.042968.214843.097656.445312.152343.675781.050781.25.105469.480469.167969.75.035156.148438.078125.308594.121094.460938.046875.1875.117187.410156.171875.605468.105469.390625.21875.78125.355469 1.226563.105468.355469.246093.78125.371093 1.171875.105469.328125.195313.632812.3125.988281.070313.222656.160157.480469.238281.71875.136719.402344.285157.847656.4375 1.28125.132813.371094.265626.753906.410157 1.152344.125.347656.257812.722656.382812 1.085937.167969.480469.335938.949219.523438 1.464844.015625.046875.027343.082031.042969.117188l.007812.027343c.136719.371094.304688.824219.453125 1.214844.160156.425781.3125.847656.480469 1.300781.515625 1.394532 1.101562 2.941406 1.734375 4.59375-3.519531 10.84375-5.605469 22.492188-6.355469 34.761719-.246094 3.605469-.355469 6.941406-.355469 9.882813 0 6.195312-.300781 12.167968-.824219 17.960937-.167968 1.875-.5 3.625-.730468 5.457031-.46875 3.839844-.957032 7.660156-1.667969 11.3125-.402344 2.0625-.945313 4-1.425781 6-.769532 3.246094-1.570313 6.460938-2.542969 9.535156-.628906 1.992188-1.375 3.894532-2.085937 5.8125-.683594 1.851563-1.449219 3.628907-2.214844 5.40625-1.152344-.042968-2.316406-.054687-3.472656-.105468-28.027344-1.71875-55.816407-6.449219-82.785157-14.253906zm113.382813-163.433594c1.484375-.117188 2.96875-.136719 4.460937.007812.195313.015625.394531.027344.59375.042969 3.65625.4375 7.273438 1.617187 10.648438 3.628906l.746093.441407c1.238282.800781 2.417969 1.671874 3.496094 2.648437.40625.375.761719.78125 1.144532 1.175781.847656.859375 1.636718 1.777344 2.347656 2.746094.363281.488281.710937.984375 1.039062 1.5.65625 1.03125 1.226563 2.125 1.742188 3.246094.214844.46875.460937.921875.648437 1.402344.0625.171874.085938.367187.152344.535156-.332031.292968-.625.605468-.953125.90625-1.152344 1.066406-2.285156 2.140625-3.386719 3.226562-1.917969 1.859375-3.757812 3.769532-5.542969 5.722656-5.726562 6.25-10.792968 12.890626-15.023437 20.007813-.070313-4.441406-.355469-8.78125-.773437-13.054687-.140626-1.476563-.371094-2.871094-.546876-4.300782-.394531-3.058594-.855468-6.082031-1.433593-9.039062-.390625-2.035156-.796875-4.054688-1.261719-6.007813-.460938-1.921875-1.011719-3.796875-1.554688-5.671875-.78125-2.730468-1.5625-5.449218-2.488281-8.027344 1.554688-.496093 3.152344-.835937 4.769531-1.03125.414063-.0625.792969-.074218 1.175782-.105468zm17.597656-37.632813.472656 1.207031c.613282 1.582032 1.066406 3.175782 1.375 4.746094.292969 1.574219.492188 3.179688.492188 4.84375 0 2.160156-.304688 4.125-.738282 5.964844-.160156.65625-.402343 1.234375-.597656 1.847656-.355468 1.101563-.726562 2.1875-1.179687 3.148438-.089844.191406-.195313.363281-.292969.546875-4.691406-1.679688-9.722656-2.621094-14.957031-2.621094-2.542969 0-5.050781.285156-7.519531.714844-.695313.113281-1.371094.308593-2.0625.460937-1.617188.363282-3.207032.78125-4.78125 1.324219-.339844.113281-.695313.160156-1.03125.285156-3.785157-7.039062-8.097657-13.484375-12.886719-19.304687 1.785156-1.960938 3.492187-3.988282 5.152343-6.023438.523438-.648437 1.023438-1.273437 1.53125-1.914062.246094-.3125.503907-.628906.753907-.941406.265625-.339844.535156-.660157.800781-.996094.671875-.863282 1.289062-1.699219 1.933594-2.542969.453125-.59375.890625-1.164063 1.328125-1.75.835937-1.113281 1.605469-2.160156 2.371093-3.210937.277344-.371094.632813-.832032.898438-1.199219 1.589844-.3125 3.121094-.46875 4.621094-.46875 10.84375.015625 20.160156 6.558593 24.316406 15.882812zm-25.5625 216.054688c.25-.6875.421875-1.433594.667969-2.117188.640625-1.8125 1.164062-3.695312 1.742187-5.554687 1.109375-3.601563 2.113282-7.269532 2.976563-11.046875.472656-2.046875.90625-4.117188 1.304687-6.214844.757813-4 1.351563-8.113281 1.851563-12.300781.230469-1.929688.515625-3.8125.691406-5.777344.550781-6.1875.898437-12.503906.898437-19.066406 0-4.351563.234376-8.519532.597657-12.582032.113281-1.289062.300781-2.542968.453125-3.8125.335937-2.820312.71875-5.589843 1.226562-8.257812.230469-1.226562.488282-2.445312.753906-3.652344.613282-2.785156 1.296876-5.484375 2.082032-8.109375.257812-.878906.515625-1.765625.796875-2.636719.683593-2.097656 1.492187-4.082031 2.277343-6.082031.941407-2.390625 1.960938-4.738281 3.074219-7.039062.140625-.292969.292969-.578125.4375-.871094.914063-1.859375 1.910157-3.671875 2.929688-5.476563 1.183593-2.050781 2.417969-4.070312 3.742187-6.042968 1.085938-1.632813 2.1875-3.25 3.371094-4.824219 1.902344-2.515625 3.953125-4.941406 6.105469-7.316406.648437-.71875 1.242187-1.457031 1.910156-2.160157.347656-.363281.683594-.726562 1.039063-1.082031 3.203124-3.253906 6.570312-6.410156 10.25-9.359375 1.875-1.503906 3.777343-2.933594 5.707031-4.3125.3125-.222656.601562-.460937.921875-.683594 2.089844-1.464843 4.214844-2.84375 6.347656-4.167968.34375-.214844.683594-.441406 1.019531-.648438 2.125-1.296875 4.265625-2.523437 6.417969-3.695312.363281-.195313.71875-.402344 1.085938-.597656 2.132812-1.136719 4.261718-2.210938 6.398437-3.234376.390625-.1875.789063-.371093 1.179687-.558593 2.105469-.988281 4.203126-1.921875 6.285157-2.800781.433593-.1875.871093-.355469 1.304687-.53125 2.035156-.835938 4.0625-1.644532 6.0625-2.382813.488282-.179687.976563-.347656 1.46875-.523437 1.933594-.703126 3.863282-1.386719 5.738282-2 .550781-.179688 1.078124-.328126 1.617187-.496094 1.742187-.550782 3.484375-1.101563 5.15625-1.582032v164.628907c-26.78125 7.742187-54.164063 12.453125-81.839844 14.246093-8.664062.429688-17.339843.738282-26.050781.722657zm124.378906-219.9375c1.492188-.160157 3.144532-.222657 4.949219-.152344-2.730469 3.714844-3.832031 8.371094-3.023437 12.941406.683593 3.882813 2.667968 7.394531 5.589843 10.027344-1.644531 1.617187-3.679687 3.535156-6.230469 5.828125v-10.957031l-10.878906 2.496093c-2.542968.585938-5.25 1.273438-8.050781 2.027344-2.125.558594-4.1875 1.152344-6.230469 1.757813-.140625.042969-.277344.082031-.410156.125-20.46875 6.085937-37.152344 14.140625-50.652344 23.410156-.035156-.082031-.097656-.140625-.140625-.222656-.160156-.292969-.320312-.585938-.480469-.871094-.648437-1.179687-1.429687-2.246094-2.175781-3.359375-.453125-.667969-.828125-1.378906-1.316406-2.015625-.1875-.242187-.398437-.464844-.585937-.703125-.90625-1.144531-1.921876-2.175781-2.933594-3.21875-.496094-.515625-.925782-1.101562-1.449219-1.589844.996094-1.820312 1.8125-3.695312 2.53125-5.617187.027344-.078125.046875-.160157.070313-.230469.785156-2.132812 1.371093-4.320312 1.804687-6.550781.089844-.460938.1875-.914063.261719-1.378907.378906-2.316406.636718-4.664062.636718-7.0625 0-2.269531-.183593-4.542968-.558593-6.820312 3.53125-2.382812 6.113281-6.050781 7.003906-10.488281.292969-1.507813.726563-3.117188 1.296875-4.78125 2.082031 2.753906 4.96875 4.710937 8.585938 5.832031l11.964843 3.695312-.453125-12.503906c-.125-3.554687.53125-6.425781 1.25-8.433594.277344.363282.550782.738282.820313 1.121094 3.570312 5.046875 9.117187 8.023438 15.222656 8.175782 1.367187-.042969 2.765625-.222657 4.152344-.515626.65625-.144531 1.277343-.394531 1.925781-.597656.757812-.230468 1.503906-.433594 2.234375-.753906.539063-.238281 1.039063-.558594 1.5625-.84375.78125-.417969 1.554687-.84375 2.273437-1.378906.472657-.347656.890626-.765625 1.332032-1.15625.472656-.414063.996094-.761719 1.425781-1.242188.328125 4.34375 2.230469 8.40625 5.367187 11.410156 3.558594 3.414063 8.445313 5.078126 13.308594 4.597657zm-29.453125-30.734375c-.800781.851562-1.574219 1.742187-2.292969 2.671875-.523437.667969-1.085937.773437-1.386718.773437-.242188-.125-.835938-.214844-1.148438-.65625-.699218-.996094-1.4375-1.984375-2.1875-2.890625-3.863281-4.734375-9.777344-7.011719-15.808594-6.230469-5.929687.835938-10.871093 4.621094-13.226562 10.125-.222656.53125-.441406 1.054688-.640625 1.597657-1.847656-.574219-3.828125-.746094-5.820313-.664063 6.667969-4.855468 11.046876-12.65625 11.046876-21.507812 0-4.917969-3.972657-8.890625-8.886719-8.890625-4.914063 0-8.886719 3.972656-8.886719 8.890625 0 4.902344-3.984375 8.886718-8.890625 8.886718-4.914063 0-8.886719 3.972657-8.886719 8.886719 0 4.917969 3.972656 8.890625 8.886719 8.890625 1.628906 0 3.203125-.195312 4.746094-.480468-1.769531 1.695312-3.269531 3.695312-4.160157 6.078124-.410156 1.066407-.601562 2.070313-.941406 3.128907-6.578125-8.613281-16.121094-14.78125-27.195312-16.808594.738281-2.328125 1.074218-4.796875.746094-7.324219-.789063-6.050781-4.621094-11.117187-10.21875-13.578125-1.085938-.480469-2.195313-.917969-3.378907-1.332031-.515625-.1875-.808593-.472656-.933593-.898438-.089844-.285156-.160157-.871093.363281-1.574218 2.570312-3.476563 4.507812-7.359375 5.503906-10.960938.371094 14.382813 12.121094 25.980469 26.589844 25.980469 4.917969 0 8.890625-3.972656 8.890625-8.886719 0-4.914062-3.972656-8.886718-8.890625-8.886718-4.902344 0-8.886719-3.984376-8.886719-8.890626 0-3.09375-1.671875-5.679687-4.0625-7.269531 35.613281 3.050781 64.523438 18.070313 79.957031 41.820313zm-209.203125-32.398438c.933594-4.628906-.097656-9.410156-3.09375-13.019531 1.945313-.0625 3.695313.0625 5.351563.257813 4.808593.570312 9.75-.933594 13.394531-4.25 3.226562-2.921876 5.226562-6.949219 5.667969-11.296876 3.734375 4.355469 9.03125 6.84375 14.726562 6.84375h.027344c6.097656 0 11.699219-2.832031 15.421875-7.847656.265625-.355468.535156-.699218.808594-1.046875.667968 2.035157 1.253906 4.921875 1.039062 8.46875l-.753906 12.460938 12.035156-3.378907c3.734375-1.046874 6.71875-3.003906 8.628906-5.988281.578126 1.847657 1.023438 3.582031 1.296876 5.179688.835937 4.828125 3.726562 9.050781 7.949218 11.574219 3.75 2.238281 8.21875 2.984374 12.449219 2.132812-3.082031 4.859375-3.902344 10.648438-2.246094 16.113281 1.777344 5.832031 6.132813 10.371094 11.917969 12.433594.480469.179687.949219.355469 1.410156.542969-1.632812 1.519531-3.394531 3.707031-5.792968 6.90625h-.007813l-.117187.175781c-.878907 1.183594-1.839844 2.492187-2.921876 3.972656-1.101562 1.496094-2.320312 3.15625-3.574218 4.835938-.371094.488281-.753906.996093-1.136719 1.503906-1.058594 1.402344-2.179687 2.835937-3.316406 4.273437-.390625.488282-.765625.976563-1.164063 1.46875-1.351562 1.667969-2.753906 3.3125-4.167968 4.902344-24.582032-22.511718-55.46875-33.957031-78.398438-39.601562-1.082031-.265625-2.175781-.320313-3.253906-.285156-.113282 0-.246094-.035157-.363282-.027344-3.234374-2.996094-5.734374-5.4375-7.632812-7.429688 2.972656-2.542968 5.042969-6.007812 5.816406-9.875zm183.726563 443.183594h-136.433594c-26.09375 0-47.320313-21.234375-47.320313-47.328125v-109.328125c27.644532 7.464844 57.640626 11.988281 88.160157 13.707031l12.433593.460938h.035157l5.742187.214843.054688-.109374c.328125.011718.648437.011718.976562.019531 5.226563.085937 10.414063.097656 15.640625.015625 3.707031-.070313 7.414063-.167969 11.121094-.335938 33.523437-1.28125 66.640625-5.796875 96.921875-13.972656v109.320312c-.003906 26.101563-21.234375 47.335938-47.332031 47.335938zm65.105469-56.480469v-37.144531l12.90625 5.066406 34.382812 13.5zm0 0"/><path d="m239.972656 360.898438c-4.914062 0-8.886718 3.976562-8.886718 8.890624 0 43.363282-73.261719 79.992188-159.980469 79.992188-4.917969 0-8.890625 3.972656-8.890625 8.886719 0 4.914062 3.972656 8.886719 8.890625 8.886719 99.675781 0 177.753906-42.945313 177.753906-97.765626 0-4.914062-3.980469-8.890624-8.886719-8.890624zm0 0"/></svg>