<svg height="512pt" viewBox="0 -4 512.00307 512" width="512pt" xmlns="http://www.w3.org/2000/svg"><path d="m263.929688 251.550781 71.003906-71.003906h.011718l22.648438-22.65625 53.613281-53.613281 24.539063-24.542969-6.132813-6.136719c-98.121093-98.121094-257.78125-98.136718-355.902343 0-47.527344 47.539063-73.710938 110.734375-73.710938 177.953125s26.183594 130.414063 73.710938 177.949219c49.054687 49.058594 113.507812 73.589844 177.949218 73.589844s128.894532-24.53125 177.949219-73.589844l6.136719-6.136719-24.542969-24.539062zm65.832031-104.136719c0-9.570312 7.785156-17.355468 17.355469-17.355468 3.792968 0 7.378906 1.242187 10.3125 3.445312l-12.105469 12.117188-12.105469 12.105468c-2.222656-2.945312-3.457031-6.519531-3.457031-10.3125zm17.355469-34.710937c-19.140626 0-34.710938 15.566406-34.710938 34.710937 0 8.488282 3.109375 16.402344 8.515625 22.597657l-81.53125 81.539062 147.136719 147.132813c-78.226563 71.757812-200.246094 69.765625-276.003906-6.003906-77.8125-77.824219-77.8125-204.453126 0-282.269532 38.914062-38.902344 90.027343-58.355468 141.140624-58.355468 48.40625 0 96.820313 17.449218 134.863282 52.363281l-16.808594 16.808593c-6.199219-5.417968-14.113281-8.523437-22.601562-8.523437zm-95.457032 373.152344c-62.585937 0-121.421875-24.378907-165.679687-68.625-44.257813-44.25-68.625-103.09375-68.625-165.679688 0-62.589843 24.375-121.421875 68.625-165.679687 44.25-44.257813 103.09375-68.625 165.679687-68.625 59.6875 0 115.964844 22.164062 159.433594 62.601562l-12.3125 12.316406c-84.984375-78.519531-218-76.558593-300.527344 5.976563-84.585937 84.585937-84.585937 222.226563 0 306.8125 42.292969 42.292969 97.851563 63.445313 153.40625 63.445313 52.847656 0 105.683594-19.179688 147.121094-57.457032l12.3125 12.3125c-43.46875 40.4375-99.746094 62.601563-159.433594 62.601563zm0 0"/><path d="m454.871094 122.039062-8.242188-6.792968-150.761718 126.964844-8.539063 7.1875.007813.007812-.035157.027344 7.378907 6.558594 129.875 116.390624.574218-.488281 23.992188 21.324219 5.746094-4.886719c36.316406-30.839843 57.136718-79.375 57.136718-133.144531s-20.824218-102.304688-57.132812-133.148438zm-141.039063 127.757813 42.417969-35.65625c6.464844 7.089844 15.671875 11.378906 25.582031 11.378906 19.144531 0 34.710938-15.570312 34.710938-34.714843 0-7.808594-2.664063-15.210938-7.316407-21.207032l12.863282-10.8125c23.761718 22.007813 37.84375 57.699219 37.84375 96.414063 0 37.035156-12.910156 71.269531-34.839844 93.441406zm85.355469-58.992187c0 9.574218-7.785156 17.355468-17.359375 17.355468-4.703125 0-9.117187-1.925781-12.320313-5.171875l26.457032-22.242187c2.066406 2.898437 3.222656 6.394531 3.222656 10.058594zm50.027344 179.269531-11.257813-9.996094c24.714844-25.410156 39.332031-63.6875 39.332031-104.882813 0-42.71875-15.726562-82.257812-42.117187-107.605468l11.480469-9.667969c30.546875 27.640625 47.988281 70.125 47.988281 117.265625.003906 45.800781-16.460937 87.222656-45.425781 114.886719zm0 0"/><path d="m416.542969 251.550781c-19.144531 0-34.714844 15.566407-34.714844 34.710938s15.570313 34.710937 34.714844 34.710937c19.140625 0 34.710937-15.566406 34.710937-34.710937s-15.566406-34.710938-34.710937-34.710938zm0 52.066407c-9.574219 0-17.359375-7.78125-17.359375-17.355469 0-9.570313 7.785156-17.355469 17.359375-17.355469 9.570312 0 17.355469 7.785156 17.355469 17.355469 0 9.574219-7.785157 17.355469-17.355469 17.355469zm0 0"/><path d="m251.660156 381.71875c0 19.144531 15.566406 34.710938 34.710938 34.710938 19.144531 0 34.710937-15.566407 34.710937-34.710938s-15.566406-34.710938-34.710937-34.710938c-19.144532 0-34.710938 15.566407-34.710938 34.710938zm34.710938-17.355469c9.574218 0 17.359375 7.785157 17.359375 17.355469 0 9.574219-7.785157 17.359375-17.359375 17.359375-9.570313 0-17.355469-7.785156-17.355469-17.359375 0-9.570312 7.785156-17.355469 17.355469-17.355469zm0 0"/><path d="m164.882812 320.972656c-19.144531 0-34.710937 15.570313-34.710937 34.710938 0 19.144531 15.566406 34.710937 34.710937 34.710937 19.140626 0 34.710938-15.566406 34.710938-34.710937 0-19.140625-15.570312-34.710938-34.710938-34.710938zm0 52.066406c-9.574218 0-17.359374-7.78125-17.359374-17.355468 0-9.570313 7.785156-17.355469 17.359374-17.355469 9.570313 0 17.355469 7.785156 17.355469 17.355469 0 9.574218-7.785156 17.355468-17.355469 17.355468zm0 0"/><path d="m104.136719 225.515625c-19.144531 0-34.710938 15.570313-34.710938 34.710937 0 19.144532 15.566407 34.710938 34.710938 34.710938 19.140625 0 34.710937-15.566406 34.710937-34.710938 0-19.140624-15.570312-34.710937-34.710937-34.710937zm0 52.066406c-9.574219 0-17.359375-7.78125-17.359375-17.355469 0-9.570312 7.785156-17.355468 17.359375-17.355468 9.570312 0 17.355469 7.785156 17.355469 17.355468 0 9.574219-7.785157 17.355469-17.355469 17.355469zm0 0"/><path d="m138.847656 182.125c19.140625 0 34.710938-15.566406 34.710938-34.710938 0-19.140624-15.570313-34.710937-34.710938-34.710937-19.144531 0-34.710937 15.566406-34.710937 34.710937 0 19.144532 15.566406 34.710938 34.710937 34.710938zm0-52.066406c9.570313 0 17.355469 7.785156 17.355469 17.355468 0 9.574219-7.785156 17.359376-17.355469 17.359376-9.574218 0-17.359375-7.785157-17.359375-17.359376 0-9.570312 7.789063-17.355468 17.359375-17.355468zm0 0"/><path d="m242.984375 69.3125c-19.144531 0-34.710937 15.570312-34.710937 34.710938 0 19.144531 15.566406 34.710937 34.710937 34.710937 19.140625 0 34.710937-15.566406 34.710937-34.710937 0-19.140626-15.570312-34.710938-34.710937-34.710938zm0 52.066406c-9.574219 0-17.355469-7.78125-17.355469-17.355468 0-9.570313 7.78125-17.355469 17.355469-17.355469 9.570313 0 17.355469 7.785156 17.355469 17.355469 0 9.574218-7.785156 17.355468-17.355469 17.355468zm0 0"/><path d="m416.542969 242.871094c4.789062 0 8.675781-3.878906 8.675781-8.675782 0-9.574218 7.785156-17.359374 17.355469-17.359374 4.792969 0 8.679687-3.878907 8.679687-8.675782 0-4.800781-3.886718-8.679687-8.679687-8.679687-19.140625 0-34.710938 15.570312-34.710938 34.710937 0 4.800782 3.886719 8.679688 8.679688 8.679688zm0 0"/><path d="m130.171875 216.835938c0 4.800781 3.886719 8.679687 8.675781 8.679687 4.789063 0 8.679688-3.878906 8.679688-8.679687 0-9.570313 7.78125-17.355469 17.355468-17.355469 4.789063 0 8.679688-3.878907 8.679688-8.675781 0-4.800782-3.890625-8.679688-8.679688-8.679688-19.144531 0-34.710937 15.570312-34.710937 34.710938zm0 0"/><path d="m223.230469 378.1875c-3.902344-2.777344-9.328125-1.847656-12.105469 2.046875-2.777344 3.90625-1.855469 9.332031 2.050781 12.105469 7.800781 5.546875 9.648438 16.402344 4.113281 24.203125-2.777343 3.914062-1.859374 9.332031 2.054688 12.105469 1.519531 1.085937 3.273438 1.605468 5.015625 1.605468 2.71875 0 5.398437-1.265625 7.082031-3.652344 11.082032-15.621093 7.394532-37.332031-8.210937-48.414062zm0 0"/><path d="m251.660156 164.769531c-4.789062 0-8.679687 3.878907-8.679687 8.679688 0 1.199219-.972657 2.167969-2.167969 2.167969-10.769531 0-19.523438 8.765624-19.523438 19.527343 0 1.195313-.972656 2.167969-2.171874 2.167969-10.769532 0-19.523438 8.765625-19.523438 19.523438 0 4.800781 3.886719 8.679687 8.675781 8.679687 4.792969 0 8.679688-3.878906 8.679688-8.679687 0-1.195313.972656-2.167969 2.167969-2.167969 10.769531 0 19.527343-8.761719 19.527343-19.523438 0-1.199219.972657-2.171875 2.167969-2.171875 10.769531 0 19.527344-8.761718 19.527344-19.523437 0-4.800781-3.886719-8.679688-8.679688-8.679688zm0 0"/><path d="m219.5 291.441406c3.359375 0 6.675781-.875 9.660156-2.585937 4.15625-2.367188 5.605469-7.679688 3.226563-11.835938-2.367188-4.15625-7.652344-5.605469-11.835938-3.226562-.644531.371093-1.257812.320312-1.648437.207031-.390625-.109375-.9375-.371094-1.3125-1.023438-5.34375-9.347656-17.304688-12.625-26.640625-7.261718-1.042969.589844-2.359375.214844-2.957031-.808594-2.585938-4.53125-6.785157-7.785156-11.820313-9.164062-5.035156-1.378907-10.292969-.703126-14.824219 1.890624-4.15625 2.371094-5.605468 7.679688-3.226562 11.839844 2.378906 4.164063 7.671875 5.628906 11.835937 3.226563.652344-.375 1.257813-.3125 1.648438-.210938.390625.113281.9375.375 1.3125 1.027344 5.34375 9.34375 17.292969 12.609375 26.640625 7.261719 1.042968-.605469 2.359375-.226563 2.957031.808594 2.585937 4.527343 6.789063 7.78125 11.820313 9.160156 1.710937.460937 3.4375.695312 5.164062.695312zm0 0"/><path d="m237.125 328.410156c-.335938.226563-.882812.476563-1.628906.304688-5.105469-1.101563-10.328125-.097656-14.695313 2.75-4.363281 2.847656-7.359375 7.230468-8.433593 12.332031-.992188 4.695313 2.011718 9.292969 6.707031 10.285156.601562.128907 1.199219.179688 1.796875.179688 4.015625 0 7.621094-2.800781 8.488281-6.886719.15625-.730469.589844-1.15625.9375-1.375.347656-.222656.910156-.449219 1.628906-.300781 5.085938 1.082031 10.320313.109375 14.691407-2.742188 4.367187-2.847656 7.367187-7.230469 8.445312-12.34375.15625-.726562.589844-1.144531.925781-1.359375.347657-.226562.910157-.445312 1.640625-.304687 10.527344 2.175781 20.90625-4.546875 23.128906-15.085938.988282-4.683593-2.015624-9.285156-6.699218-10.28125-4.695313-.972656-9.296875 2.003907-10.285156 6.699219-.253907 1.164062-1.441407 1.933594-2.570313 1.675781-5.109375-1.09375-10.324219-.113281-14.6875 2.742188-4.367187 2.84375-7.371094 7.226562-8.445313 12.328125-.164062.734375-.605468 1.160156-.945312 1.382812zm0 0"/></svg>