<svg height="512pt" viewBox="0 -1 512.00055 512" width="512pt" xmlns="http://www.w3.org/2000/svg"><path d="m507.859375 9.417969c-4.492187-3.285157-10.804687-2.296875-14.078125 2.207031l-94.492188 129.625c-3.800781-3.335938-8.738281-4.746094-13.515624-4.019531-.140626-3.679688-1.511719-7.207031-3.898438-10.058594l39.960938-113.742187c1.84375-5.253907-.917969-11.007813-6.167969-12.839844-5.25-1.886719-11.007813.914062-12.851563 6.164062l-39.285156 111.8125c-1.371094-3.636718-3.972656-6.792968-7.578125-8.769531-4.625-2.539063-10-2.730469-14.632813-.753906-1.433593-4.828125-5-8.851563-9.90625-10.792969-4.921874-1.914062-10.261718-1.453125-14.617187 1.074219-2.023437-4.605469-6.066406-8.152344-11.183594-9.453125-5.101562-1.320313-10.359375-.160156-14.363281 2.902344-2.578125-4.320313-7.046875-7.324219-12.285156-7.980469-5.269532-.726563-10.300782 1.136719-13.867188 4.675781-6.21875-7.933594-20.15625-7.933594-26.375 0-3.578125-3.546875-8.636718-5.371094-13.886718-4.675781-5.242188.65625-9.6875 3.660156-12.277344 7.980469-3.988282-3.0625-9.21875-4.242188-14.359375-2.902344-5.121094 1.308594-9.164063 4.847656-11.1875 9.453125-4.34375-2.539063-9.6875-3.023438-14.613281-1.074219-2.207032.875-4.011719 2.277344-5.605469 3.867188-12.171875-13.414063-28.398438-27.621094-45.402344-33.175782l-8.785156-2.890625-3.601563 8.554688c-.792968 1.894531-14.472656 35.382812-5.855468 68.136719-.765626.847656-1.5 1.726562-2.085938 2.734374-1.753906 3-2.496094 6.429688-2.195312 9.816407-4.867188.210937-9.957032 2.023437-13.324219 6.097656-3.367188 4.058594-4.554688 9.3125-3.476563 14.21875-5.007812.503906-9.632812 3.246094-12.457031 7.722656-2.839844 4.453125-3.367187 9.796875-1.679687 14.542969-4.910157 1.117188-9.152344 4.421875-11.402344 9.210938-2.246094 4.777343-2.09375 10.148437.171875 14.640624-2.589844.949219-4.917969 2.53125-6.75 4.648438-.566407.652344-1.007813 1.378906-1.460938 2.105469h-24.558593c-6.574219 0-12.921876 2.761719-17.425782 7.578125-4.546875 4.859375-6.894531 11.460937-6.4492185 18.113281 5.9648435 88.152344 62.0390625 132.414063 144.4062505 171.742187 9.195312 4.394532 16.792968 11.699219 21.386718 20.578126 4.496094 8.6875 3.78125 19.894531-1.953125 29.429687-4.324219 7.175781-4.445312 15.800781-.324219 23.097656 4.121094 7.304688 11.582032 11.652344 19.957032 11.652344h135.933594c8.375 0 15.84375-4.355469 19.953124-11.652344 4.121094-7.296875 4.003907-15.921875-.421874-23.28125-5.632813-9.363281-6.339844-20.558593-1.851563-29.234375 4.59375-8.890625 12.183594-16.195312 21.386719-20.589844 82.355468-39.328124 138.433594-83.589843 144.398437-171.742187.445313-6.652344-1.894531-13.246094-6.449219-18.113281-4.496093-4.816406-10.855468-7.578125-17.425781-7.578125h-23.683593c-.453126-.726563-.898438-1.449219-1.460938-2.105469-1.835938-2.117188-4.164062-3.699219-6.753906-4.648438 2.257812-4.492187 2.410156-9.863281.160156-14.640624-2.246094-4.789063-6.488281-8.09375-11.398438-9.210938 1.683594-4.75 1.160157-10.089844-1.671874-14.542969-2.832032-4.464843-7.449219-7.21875-12.457032-7.722656 1.066406-4.90625-.109375-10.15625-3.476562-14.21875-1.5625-1.894531-3.539063-3.265625-5.664063-4.253906l97.402344-133.636719c3.308594-4.496094 2.308594-10.796875-2.1875-14.082031zm-383.472656 82.84375c14.058593 8.019531 27.847656 22.828125 36.785156 34.398437 1.460937 1.882813 2.832031 3.757813 4.082031 5.511719.0625.089844.140625.191406.203125.28125 1.308594 1.863281 2.457031 3.597656 3.34375 5.058594 3.234375 5.324219 3.597657 10.421875 2.367188 14.824219-1.226563 4.394531-4.050781 8.105468-7.195313 10.652343-6.410156 5.222657-17.210937 8.214844-26.644531-.601562l-.394531-.375-.390625-.382813c-.03125-.03125-.050781-.0625-.082031-.089844-2.550782-2.480468-4.777344-5.160156-6.699219-8.0625-.082031-.121093-.164063-.242187-.246094-.375-1.875-2.871093-3.445313-5.964843-4.753906-9.320312-7.246094-18.523438-3.640625-39.496094-.375-51.519531zm357.371093 157.550781c.433594.476562 1.160157 1.480469 1.058594 2.996094-5.332031 78.660156-54.832031 117.589844-132.980468 154.910156-13.128907 6.269531-23.996094 16.75-30.605469 29.515625-7.691407 14.855469-6.734375 33.59375 2.597656 49.070313.683594 1.140624.402344 2.160156.03125 2.792968-.375.636719-1.078125 1.414063-2.410156 1.414063h-135.921875c-1.332032 0-2.046875-.765625-2.410156-1.414063-.363282-.644531-.65625-1.652344.140624-2.972656 9.222657-15.308594 10.179688-34.042969 2.488282-48.910156-6.601563-12.757813-17.472656-23.238282-30.597656-29.507813-78.15625-37.308593-127.660157-76.242187-132.988282-154.902343-.101562-1.5.621094-2.519532 1.054688-2.992188.503906-.542969 1.382812-1.179688 2.703125-1.179688h455.140625c1.320312 0 2.195312.636719 2.699218 1.179688zm-81.683593-73.339844c-.785157 4.386719.214843 8.980469 2.972656 12.769532 2.753906 3.800781 6.804687 6.15625 11.21875 6.773437-1.320313 4.242187-.90625 8.917969 1.347656 13.03125 2.257813 4.101563 5.988281 6.964844 10.289063 8.132813-1.601563 3.496093-1.941406 7.476562-.894532 11.308593h-346.144531c1.046875-3.832031.707031-7.8125-.886719-11.308593 4.292969-1.160157 8.023438-4.007813 10.28125-8.132813 2.257813-4.101563 2.679688-8.777344 1.351563-13.03125 4.402344-.617187 8.464844-2.972656 11.214844-6.773437 2.761719-3.789063 3.761719-8.382813 2.972656-12.769532 4.457031-.058594 8.777344-1.894531 11.984375-5.308594.371094-.402343.722656-.816406 1.046875-1.242187 1.773437 2.199219 3.6875 4.285156 5.722656 6.261719l.746094.695312.394531.371094c.554688.515625 1.179688.875 1.753906 1.363281 1.390626 1.167969 2.769532 2.347657 4.253907 3.304688.886719.574219 1.84375.957031 2.761719 1.449219 1.246093.675781 2.476562 1.402343 3.777343 1.9375 1.007813.414062 2.046875.632812 3.074219.957031 1.269531.394531 2.53125.847656 3.820312 1.117187 1.058594.214844 2.125.253906 3.195313.375 1.300781.152344 2.589844.351563 3.898437.371094.171876 0 .34375.050781.515626.050781 1.167968 0 2.347656-.199219 3.515624-.3125.945313-.089843 1.894532-.089843 2.839844-.25 1.414063-.234375 2.792969-.65625 4.183594-1.046875.875-.242187 1.753906-.394531 2.621094-.695312 1.582031-.566406 3.125-1.332032 4.664062-2.097656.625-.3125 1.28125-.523438 1.894532-.875 2.148437-1.210938 4.234374-2.609376 6.230468-4.234376 7.488282-6.085937 12.195313-13.980468 14.136719-22.402343 2.226563-9.625.820313-19.945313-4.796875-29.175781-.019531-.042969-.058594-.09375-.078125-.132813-.960937-1.5625-2.257813-3.535156-3.839844-5.804687-.140625-.199219-.234375-.363282-.375-.5625 3.800781 1.84375 8.222657 2.195312 12.476563.824218 4.457031-1.449218 7.964844-4.574218 9.910156-8.585937 3.617188 2.570312 8.191406 3.628906 12.808594 2.742187 4.605468-.878906 8.476562-3.546875 10.902344-7.277344 3.289062 3.015626 7.722656 4.726563 12.367187 4.332032 4.6875-.289063 8.859375-2.449219 11.742187-5.84375 2.871094 3.398437 7.042969 5.554687 11.722657 5.84375 4.664062.285156 9.089843-1.316406 12.382812-4.332032 2.429688 3.730469 6.300781 6.398438 10.90625 7.277344 4.59375.875 9.179688-.183594 12.808594-2.742187 1.9375 4.003906 5.441406 7.125 9.898437 8.578125 4.441407 1.460937 9.128907.988281 13.058594-1.109375 1.433594 4.222656 4.515625 7.769531 8.757813 9.765625 4.234375 1.976562 8.929687 2.097656 13.09375.523437.886719 4.367188 3.507812 8.265625 7.46875 10.777344.964843.613281 1.964843 1.105469 3 1.5l-17.746094 50.511719c-1.84375 5.25.917969 11.007812 6.167969 12.839844 1.105468.394531 2.238281.574218 3.34375.574218 4.164062 0 8.050781-2.589844 9.503906-6.742187l15.570312-44.324219c3.457032 2.519531 7.597657 3.628906 11.679688 3.1875-.058594 1.226562.042969 2.4375.253906 3.648438l-27.171875 37.277343c-3.273437 4.496094-2.285156 10.792969 2.207031 14.070313 1.796876 1.308594 3.871094 1.933594 5.925782 1.933594 3.113281 0 6.179687-1.441407 8.15625-4.140626l25.769531-35.355468c.445313.011718.898437.125 1.371094.132812zm0 0"/><path d="m248.539062 165.054688 10.078126-10.078126c3.941406-3.941406 3.941406-10.308593 0-14.25-3.9375-3.941406-10.308594-3.941406-14.246094 0l-10.082032 10.078126c-3.941406 3.941406-3.941406 10.308593 0 14.25 1.964844 1.964843 4.546876 2.953124 7.125 2.953124 2.582032 0 5.160157-.988281 7.125-2.953124zm0 0"/><path d="m208.226562 170.960938c-3.941406-3.941407-10.308593-3.941407-14.25 0-3.9375 3.941406-3.941406 10.3125 0 14.25l10.078126 10.078124c1.96875 1.964844 4.546874 2.953126 7.125 2.953126 2.582031 0 5.160156-.988282 7.128906-2.953126 3.9375-3.941406 3.9375-10.308593 0-14.25zm0 0"/><path d="m254.445312 191.117188-10.078124 10.078124c-3.941407 3.941407-3.941407 10.3125 0 14.25 1.964843 1.96875 4.546874 2.953126 7.125 2.953126 2.582031 0 5.160156-.988282 7.125-2.953126l10.082031-10.078124c3.9375-3.941407 3.9375-10.308594 0-14.25-3.941407-3.941407-10.3125-3.941407-14.253907 0zm0 0"/><path d="m301.882812 178.085938c2.582032 0 5.160157-.988282 7.125-2.953126 3.941407-3.9375 3.941407-10.308593 0-14.246093l-10.078124-10.082031c-3.941407-3.9375-10.308594-3.9375-14.25 0-3.941407 3.941406-3.941407 10.3125 0 14.25l10.078124 10.078124c1.964844 1.964844 4.546876 2.953126 7.125 2.953126zm0 0"/><path d="m304.835938 191.117188-10.078126 10.078124c-3.941406 3.941407-3.941406 10.3125 0 14.25 1.964844 1.96875 4.546876 2.953126 7.125 2.953126 2.582032 0 5.160157-.988282 7.125-2.953126l10.078126-10.078124c3.941406-3.941407 3.941406-10.308594 0-14.25-3.929688-3.941407-10.308594-3.941407-14.25 0zm0 0"/><path d="m123.429688 191.117188-10.078126 10.078124c-3.941406 3.941407-3.941406 10.3125 0 14.25 1.964844 1.96875 4.546876 2.953126 7.125 2.953126 2.582032 0 5.160157-.988282 7.125-2.953126l10.078126-10.078124c3.941406-3.941407 3.941406-10.308594 0-14.25-3.941407-3.941407-10.308594-3.941407-14.25 0zm0 0"/><path d="m180.945312 198.242188h-10.078124c-5.5625 0-10.078126 4.503906-10.078126 10.078124 0 5.574219 4.515626 10.078126 10.078126 10.078126h10.078124c5.5625 0 10.078126-4.503907 10.078126-10.078126 0-5.570312-4.515626-10.078124-10.078126-10.078124zm0 0"/><path d="m216.441406 390.765625c-39.214844-15.128906-68.640625-31.535156-92.628906-51.621094-4.273438-3.574219-10.625-3.011719-14.199219 1.25-3.570312 4.273438-3.015625 10.632813 1.257813 14.199219 25.738281 21.558594 56.972656 39.023438 98.3125 54.96875 1.1875.460938 2.417968.671875 3.628906.671875 4.039062 0 7.859375-2.449219 9.402344-6.449219 2.007812-5.179687-.585938-11.015625-5.773438-13.019531zm0 0"/><path d="m83.339844 286.910156c-2.21875-5.109375-8.152344-7.457031-13.253906-5.25-5.109376 2.21875-7.457032 8.152344-5.25 13.253906 4.644531 10.730469 10.714843 21.03125 18.03125 30.597657 1.984374 2.597656 4.980468 3.960937 8.011718 3.960937 2.136719 0 4.292969-.675781 6.117188-2.078125 4.414062-3.375 5.261718-9.707031 1.882812-14.121093-6.316406-8.253907-11.546875-17.121094-15.539062-26.363282zm0 0"/></svg>